<svg id="svg-persona-baker" xmlns="http://www.w3.org/2000/svg" version="1.1" viewBox="0 0 223.456 305.637" stroke-width="0.5" overflow="visible">
  <defs><style></style></defs>
  <g transform="matrix(1 0 0 -1 -19.164 311.407)">
    <svg id="female-hair-head">
      <path fill="#33392D" d="m81 177.3 4.5-14.4c5.6-4.2 15.2-5.2 24.7-4.7v20.4L81 177.3zm29.2 1.3v-20.4c15.2.7 30.5 4.8 30.5 4.8l1.1 9.1 1 7.8-32.6-1.3z" marker-start="none" marker-end="none" />
    </svg>
    <svg id="face">
      <path fill="#f1c9a5" d="M111.7 57.6c23.9 0 46.1 7.5 64.3 20.4-4.7 31.4-8 45.5-17.8 53.7-5.4 4.6-12.8 6.9-23.8 10.1-2.9.8-7.7 2.2-10.1 2.7v13.4c7.8 4.3 13.7 12.5 16.1 22.5 4.6.3 6.7 1.7 8.7 5.1 1.6 2.6 2.9 7 1.7 10.3-1.1 2.9-3.7 6-7.1 6-.9 0-1.7-.2-2.5-.5-2.3 17-14.7 30-29.5 30s-27.2-13-29.5-30c-.8.4-1.6.5-2.5.5-3.4 0-6-3.1-7.1-6-1.2-3.3.1-7.7 1.7-10.3 2-3.4 4.1-4.8 8.7-5.1 2.4-10 8.4-18.2 16.1-22.5v-13.4c-2.4-.5-7.2-1.9-10.1-2.7-11-3.2-18.4-5.5-23.8-10.1-9.8-8.2-13.1-22.3-17.8-53.7 18.2-12.9 40.4-20.4 64.3-20.4z" marker-start="none" marker-end="none" />
      <path fill="#e4b992" d="M111.7 57.6c23.9 0 46.1 7.5 64.3 20.4-4.7 31.4-8 45.5-17.8 53.7-5.4 4.6-12.8 6.9-23.8 10.1-2.9.8-7.7 2.2-10.1 2.7v13.4c7.8 4.3 13.7 12.5 16.1 22.5 4.6.3 6.7 1.7 8.7 5.1 1.6 2.6 2.9 7 1.7 10.3-1.1 2.9-3.7 6-7.1 6-.9 0-1.7-.2-2.5-.5-2.3 17-14.7 30-29.5 30V57.6z" marker-start="none" marker-end="none" />
    </svg>
    <svg id="female-head-short-hair">
      <path fill="#494948" d="M99.6 216.2s10.9-13.4 30.1-15.5c19.3-2.1 2.5-41.5 2.5-41.5s5.3 1 16.5 6.9c0 0 21.5 72.7-38.5 72.7-62.4 0-33.2-77.4-33.2-77.4l13-2.7s-7.5 13.1-6.5 27.7c.9 14.6 10.5 29.2 16.1 29.8z" marker-start="none" marker-end="none" />
    </svg>
    <svg id="female-clothing">
      <svg id="female-clothing-tunic">
        <path fill="#FFFFFF" d="M47.4 77.9c7.2 52.3 12.2 56.1 47.1 65.5 3.2-12.1 9.1-18.1 17.2-23 8.1 4.9 14 10.9 17.2 23 34.9-9.3 39.8-13.1 47.1-65.5-18.2-12.8-40.4-20.4-64.3-20.4-23.9.1-46.1 7.6-64.3 20.4z" stroke="#E5E5E5" marker-start="none" marker-end="none" />
      </svg>
      <svg id="female-clothing-collar">
        <path fill="#E5E5E5" d="M95.4 144c2.5-9.1 7.5-17.7 16.3-23.4-5.2-5.8-11.2-4.5-15.7-1.7-6.7 4.3-8.5 15.2-7.8 22.7l7.2 2.4zm32.7 0c-2.5-9.1-7.5-17.7-16.3-23.4 5.2-5.8 11.2-4.5 15.7-1.7 6.8 4.4 8.5 15.4 7.7 23-2.2 1.3-4.6 2.1-7.1 2.1z" marker-start="none" marker-end="none" />
      </svg>
      <svg id="female-clothing-accessory">
        <circle fill="#E5E5E5" cx="100.3" cy="74.6" r="5.2"/>
        <circle fill="#E5E5E5" cx="100.3" cy="101.2" r="5.2"/>
      </svg>
    </svg>
    <svg id="female-hat-chef">
      <path fill="#E5E5E5" d="M85.4 206.3s14.1 10.4 53.9 2l1.9 11.5s-35.9 11.2-57.4.2l-.4-10.3s-17.7.7-19.2 16.8C62.6 242.6 75 243 75 243s-4.1 9.2 7.9 16.4c0 0 4.2 3.9 14.9.2 0 0 2.5 8.6 12.7 10.5s14.4-9.2 14.4-9.2 6.6 6.1 14.7.5 4.8-14.4 4.8-14.4 9.1.8 13.2-6.7-.4-16.1-.4-16.1-8.6-10.2-10.3-10.4c0 0 12 14.3 6.5 23.7s-11 6.3-11 6.3-1.9 10.5-7.1 13.6c-5.2 3.1-12.5-1.9-12.5-1.9s-4.3 9.1-13 7.9C101 262.1 99.1 253 99.1 253s-9.2 6.9-16.1-1.3-3-13.8-3-13.8-11.6-.8-9.9-12.6c1.7-11.9 9.9-12.1 9.9-12.1l.5 7.9s-4.9 2-5 6.1l5.8-3.2s4.7 3.2 10.1 4.1c0 0-1.8 7.8-.8 9.6 0 0 4.2-8.7 5.2-9.4 0 0 4.8 1.4 11.1 1.3 0 0-.4 10 1.3 11 0 0 1.6-11.1 3.7-11 0 0 5.9-.5 7.1-1 0 0 3.4 10 6.4 10.7 0 0-3-10.7-2-11.4l10.5-1.6s3.2 6.4 6.6 7.2c0 0-4.5-7.7-3.4-8.5l9.6-1.8s-6.2-16.6-5.2-19.8c.1.1-32.9 9.5-56.1 2.9z" marker-start="none" marker-end="none" />
    </svg>
  </g>
</svg>