<svg id="svg-persona-biologist" xmlns="http://www.w3.org/2000/svg" version="1.1" viewBox="0 0 223.5 305.6" stroke-width="0.5" overflow="visible">
<defs><style></style></defs>
<g transform="matrix(1 0 0 -1 -25.901 281.678)"> 
    <svg id="face">
        <path fill="#f1c9a5" marker-start="none" marker-end="none" d="M 111.728,57.58 C 135.658,57.58 157.838,65.115 176.023,77.94 C 171.279,109.355 167.997,123.432 158.177,131.643 C 152.738,136.268 145.332,138.577 134.373,141.767 C 131.521,142.596 126.711,143.982 124.277,144.51 L 124.278,157.903 C 132.054,162.221 138.002,170.432 140.407,180.443 C 145.044,180.721 147.083,182.158 149.096,185.514 C 150.676,188.148 151.954,192.542 150.754,195.8 C 149.682,198.711 147.022,201.832 143.663,201.832 C 142.799,201.832 141.959,201.638 141.183,201.288 C 138.882,218.286 126.521,231.276 111.728,231.276 C 96.935,231.276 84.574,218.286 82.273,201.288 C 81.497,201.638 80.657,201.832 79.793,201.832 C 76.434,201.832 73.774,198.711 72.702,195.8 C 71.502,192.542 72.78,188.148 74.36,185.514 C 76.373,182.158 78.412,180.721 83.049,180.443 C 85.454,170.432 91.402,162.221 99.178,157.903 L 99.179,144.51 C 96.745,143.982 91.935,142.596 89.083,141.767 C 78.124,138.577 70.718,136.268 65.279,131.643 C 55.459,123.432 52.177,109.355 47.433,77.94 C 65.618,65.115 87.798,57.58 111.728,57.58 Z"/>
        <path fill="#e4b992" marker-start="none" marker-end="none" d="M 111.728,57.58 C 135.658,57.58 157.838,65.115 176.023,77.94 C 171.279,109.355 167.997,123.432 158.177,131.643 C 152.738,136.268 145.332,138.577 134.373,141.767 C 131.521,142.596 126.711,143.982 124.277,144.51 L 124.278,157.903 C 132.054,162.221 138.002,170.432 140.407,180.443 C 145.044,180.721 147.083,182.158 149.096,185.514 C 150.676,188.148 151.954,192.542 150.754,195.8 C 149.682,198.711 147.022,201.832 143.663,201.832 C 142.799,201.832 141.959,201.638 141.183,201.288 C 138.882,218.286 126.521,231.276 111.728,231.276 L 111.728,57.58 Z"/>
    </svg>
    <svg id="male-hair">
        <svg id="male-hair-head">
          <path fill="#e5e5e5" d="m82.1 186.2-.1 12.7-4.7 4.1c-1.8 11 .2 15.6 4.7 23.1 5.2 8.6 15.7 7.9 29.7 7.8 14 .1 24.5.8 29.7-7.8 4.6-7.5 6.6-12 4.7-23.1l-4.7-4.1-.1-12.8c-2.8 5.2-6.1 10-5.7 18.3.7 13.5-8.6 26.6-23.9 26.7-15.3-.2-24.7-13.2-23.9-26.7.4-8.2-2.9-13-5.7-18.2z" marker-start="none" marker-end="none"/>
        </svg>
        <svg id="male-hair-mustache">
          <path fill="#f0f0f0" d="M111.7 175c-1.4 1-2.9 1.6-4.5 1.5-4.1-.1-7.5-6-11.4-4.7-1.4.5-2.3 2.5-2.1 3.8-1.3-.5-1.9-2.1-1.8-3.4.3-3.2 4.7-5.6 9.1-5.5 4 0 7.8.8 10.7 3 2.9-2.3 6.7-3 10.7-3 4.4 0 8.8 2.4 9.1 5.5.1 1.4-.4 2.9-1.8 3.4.2-1.3-.8-3.3-2.1-3.8-3.9-1.4-7.3 4.5-11.4 4.7-1.5.1-3.1-.5-4.5-1.5z" marker-start="none" marker-end="none"/>
        </svg>
    </svg>
    <svg id="male-clothing">
        <path fill="#ddf3fe" d="m132.9 142.2-21.2-20.7-21.2 20.7c.8-12 .9-33.8 21.2-69.5 20.3 35.7 20.4 57.5 21.2 69.5z" marker-start="none" marker-end="none"/>
        <path fill="#ddf3fe" d="M92.4 125.7c-1.1 5-2 10.2-2.7 15.7l7.3 2.2c2.5-9.1 7.6-14.4 14.6-22-5.6-4.5-7.5-6.4-10.9-8.4-2.5 2.3-5.7 7.2-8.3 12.5zm19.3-4c7.1 7.6 12.2 12.9 14.6 22l7.3-2.2c-.7-5.5-1.6-10.7-2.7-15.7-2.5-5.3-5.8-10.2-8.4-12.5-3.3 2-5.2 3.9-10.8 8.4z" stroke="#bae5d2" stroke-width="0.5" marker-start="none" marker-end="none"/>
        <path fill="#1a2633" d="m108.9 111.3-3.2 3.2 6.1 6.1 6.1-6.1-3.2-3.2h-5.8zm-2.1-18.8 2.1 17.7h5.6l2.1-17.7c-1.5-2.3-3.2-4.6-4.9-6.9-1.7 2.3-3.4 4.6-4.9 6.9z" marker-start="none" marker-end="none"/>
        <path fill="#ffffff" d="M111.7 85.6c-16.8 31.9-14.2 50.8-15.6 58.2-10.1-3-17.7-5-23.6-7.7-13.6-6.3-19.4-16.4-25.1-58.2 7.7-5.4 16.2-9.9 25.1-13.3 12.2-4.6 25.4-7.1 39.2-7.1s27 2.5 39.2 7.1c8.9 3.3 17.4 7.9 25.1 13.3-5.7 41.9-11.5 51.9-25.1 58.2-5.9 2.7-13.4 4.7-23.6 7.7-1.3-7.3 1.2-26.3-15.6-58.2z" stroke="#afafaf" stroke-width="0.25" marker-start="none" marker-end="none"/>
        <path fill="#e0e2e2" d="m127.2 144 10.5-8.4c.7-.8.7-2 .1-2.8l-4.6-5.6c-.8-1-.5-2.6.7-3.2l4.3-2c1.1-.5 1.5-2.1.8-3.1l-22-21.6 10.2 46.7zm-20.9-46.7-21.8 21.5c-.7 1-.4 2.6.8 3.1l4.3 2c1.2.6 1.5 2.2.7 3.2l-4.6 5.6c-.6.8-.6 2 .1 2.9l10.5 8.4 10-46.7z" marker-start="none" marker-end="none"/> 
    </svg>
    <svg id="male-accessory-glasses">
        <svg id="male-accessory-glasses-frames">
            <path fill="#bae5d2" d="M137.7 205.2h-52c-1.9 0-3.4-1.2-3.4-2.7v-14.4c0-1.5 1.5-2.7 3.4-2.7h18.2c4 0 4.2 9.8 7.8 9.8s3.9-9.8 7.8-9.8h18.2c1.9 0 3.4 1.2 3.4 2.7v14.4c0 1.5-1.5 2.7-3.4 2.7z" marker-start="none" marker-end="none"/>
        </svg>
        <svg id="male-accessory-glasses-lenses">
            <path fill="#d1eddf" d="M137.7 205.2h-52c-1.9 0-3.4-1.2-3.4-2.7v-14.4l58.8 14.4c0 1.5-1.5 2.7-3.4 2.7z" marker-start="none" marker-end="none"/>
            <path fill="none" d="M137.7 205.2h-52c-1.9 0-3.4-1.2-3.4-2.7v-14.4c0-1.5 1.5-2.7 3.4-2.7h18.2c4 0 4.2 9.8 7.8 9.8s3.9-9.8 7.8-9.8h18.2c1.9 0 3.4 1.2 3.4 2.7v14.4c0 1.5-1.5 2.7-3.4 2.7z" stroke="#301e19" stroke-width="0.5" stroke-linecap="round" stroke-linejoin="round" marker-start="none" marker-end="none" />
        </svg>
    </svg>
</g>
</svg>
