<svg id="svg-persona-biologist" xmlns="http://www.w3.org/2000/svg" version="1.1" viewBox="0 0 223.456 305.637" stroke-width="0.5" overflow="visible">
<defs><style></style></defs>
<g transform="matrix(1,0,0,-1,-25.901441,281.67817)">
<svg id="face">
    <path fill="#f1c9a5" marker-start="none" marker-end="none" d="M 111.728,57.58 C 135.658,57.58 157.838,65.115 176.023,77.94 C 171.279,109.355 167.997,123.432 158.177,131.643 C 152.738,136.268 145.332,138.577 134.373,141.767 C 131.521,142.596 126.711,143.982 124.277,144.51 L 124.278,157.903 C 132.054,162.221 138.002,170.432 140.407,180.443 C 145.044,180.721 147.083,182.158 149.096,185.514 C 150.676,188.148 151.954,192.542 150.754,195.8 C 149.682,198.711 147.022,201.832 143.663,201.832 C 142.799,201.832 141.959,201.638 141.183,201.288 C 138.882,218.286 126.521,231.276 111.728,231.276 C 96.935,231.276 84.574,218.286 82.273,201.288 C 81.497,201.638 80.657,201.832 79.793,201.832 C 76.434,201.832 73.774,198.711 72.702,195.8 C 71.502,192.542 72.78,188.148 74.36,185.514 C 76.373,182.158 78.412,180.721 83.049,180.443 C 85.454,170.432 91.402,162.221 99.178,157.903 L 99.179,144.51 C 96.745,143.982 91.935,142.596 89.083,141.767 C 78.124,138.577 70.718,136.268 65.279,131.643 C 55.459,123.432 52.177,109.355 47.433,77.94 C 65.618,65.115 87.798,57.58 111.728,57.58 Z"/>
    <path fill="#e4b992" marker-start="none" marker-end="none" d="M 111.728,57.58 C 135.658,57.58 157.838,65.115 176.023,77.94 C 171.279,109.355 167.997,123.432 158.177,131.643 C 152.738,136.268 145.332,138.577 134.373,141.767 C 131.521,142.596 126.711,143.982 124.277,144.51 L 124.278,157.903 C 132.054,162.221 138.002,170.432 140.407,180.443 C 145.044,180.721 147.083,182.158 149.096,185.514 C 150.676,188.148 151.954,192.542 150.754,195.8 C 149.682,198.711 147.022,201.832 143.663,201.832 C 142.799,201.832 141.959,201.638 141.183,201.288 C 138.882,218.286 126.521,231.276 111.728,231.276 L 111.728,57.58 Z"/>
</svg>
<svg id="female-hair-head-full">
   <path fill="#7f4100" marker-start="none" marker-end="none" stroke="none" stroke-linejoin="miter" stroke-linecap="round" stroke-width="0.5" d="m 82.273,201.288 c -0.776,0.35 -1.616,0.544 -2.48,0.544 -3.359,0 -6.019,-3.121 -7.091,-6.032 -1.2,-3.258 0.078,-7.652 1.658,-10.286 2.013,-3.356 4.052,-4.793 8.689,-5.071 0.904,-3.764 2.308,-7.273 4.123,-10.415 h -10e-4 c -16.248,12.366 -18.387,24.098 -18.387,37.815 0,16.778 8.544,31.45 21.261,39.371 -0.002,0.12 -0.002,0.24 -0.002,0.36 0,11.969 9.716,21.685 21.685,21.685 11.969,0 21.685,-9.716 21.685,-21.685 0,-0.12 0,-0.24 -0.002,-0.36 3.415,-2.128 6.53,-4.742 9.259,-7.771 v 0.017 c 7.431,-8.201 12.002,-19.346 12.002,-31.617 0,-13.717 -2.14,-25.449 -18.389,-37.815 1.815,3.142 3.219,6.651 4.124,10.415 4.637,0.278 6.676,1.715 8.689,5.071 1.58,2.634 2.858,7.028 1.658,10.286 -1.072,2.911 -3.732,6.032 -7.091,6.032 -0.864,0 -1.704,-0.194 -2.48,-0.544 -24.665,2.135 -36.013,11.673 -42.503,23.906 -2.161,-9.452 -7.057,-17.679 -16.407,-23.906 z"/>
</svg>
<svg id="female-clothing">
    <svg id="female-clothing-blouse">
        <path fill="#B5DCAB" d="M 92.034,59.312 L 92.034,59.348 L 92.034,124.771 C 104.567,119.226 117.667,118.958 131.421,124.771 L 131.421,59.348 L 131.421,59.312 C 125.028,58.174 118.447,57.58 111.728,57.58 C 105.008,57.58 98.427,58.174 92.034,59.312 Z"  stroke-linejoin="miter" marker-start="none" marker-end="none"/>
    </svg>
    <svg id="female-clothing-jacket">
        <path fill="#ffffff" stroke="#000000" stroke-width="0.1" d="M 116.367,57.697 L 127.103,143.888 C 162.82,134.09 167.817,132.44 175.987,77.915 C 158.989,65.937 138.503,58.579 116.364,57.674 L 116.367,57.697 Z" stroke-linejoin="round" marker-start="none" marker-end="none"/>
        <path fill="#ffffff" stroke="#000000" stroke-width="0.1" d="M 47.468,77.915 C 55.638,132.44 60.635,134.09 96.353,143.888 L 107.088,57.697 L 107.091,57.674 C 84.952,58.579 64.466,65.937 47.468,77.915 Z" stroke-linejoin="round" marker-start="none" marker-end="none"/>
    </svg>
</svg>
<svg id="female-accessory-glasses">
    <svg id="female-accessory-glasses-frames">
        <path fill="#333333" marker-start="none" marker-end="none" stroke-linejoin="miter" stroke-linecap="round" d="M 136.765,202.473 L 142.582,205.168 L 143.423,203.353 L 137.507,200.61 C 137.827,199.548 138,198.421 138,197.256 C 138,190.835 132.79,185.626 126.37,185.626 C 120.086,185.626 114.964,190.613 114.747,196.843 C 112.794,197.867 110.782,197.851 108.707,196.806 C 108.471,190.593 103.356,185.626 97.086,185.626 C 90.666,185.626 85.456,190.835 85.456,197.256 C 85.456,198.421 85.628,199.548 85.89,200.61 L 80.033,203.353 L 80.874,205.168 L 86.691,202.473 C 88.604,206.275 92.542,208.886 97.086,208.886 C 103.074,208.886 108.008,204.354 108.646,198.536 C 110.824,199.598 112.874,199.555 114.812,198.559 C 115.461,204.366 120.389,208.886 126.37,208.886 C 130.914,208.886 134.852,206.275 136.765,202.473 Z M 106.716,197.256 C 106.716,202.571 102.402,206.886 97.086,206.886 C 91.771,206.886 87.456,202.571 87.456,197.256 C 87.456,191.94 91.771,187.626 97.086,187.626 C 102.402,187.626 106.716,191.94 106.716,197.256 Z M 136,197.256 C 136,202.571 131.685,206.886 126.37,206.886 C 121.054,206.886 116.74,202.571 116.74,197.256 C 116.74,191.94 121.054,187.626 126.37,187.626 C 131.685,187.626 136,191.94 136,197.256 Z" stroke="#000000" stroke-width="0.0"/>
    </svg>
    <svg id="female-accessory-glasses-lenses">
        <g id="tmp-47"><path fill="#F2F0F0" marker-start="none" marker-end="none" stroke-width="0.0" d="M 106.716,197.256 C 106.716,202.571 102.402,206.886 97.086,206.886 C 91.771,206.886 87.456,202.571 87.456,197.256 C 87.456,191.94 91.771,187.626 97.086,187.626 C 102.402,187.626 106.716,191.94 106.716,197.256 Z"/>
        </g>
        <g id="tmp-50"><path fill="#F2F0F0" marker-start="none" marker-end="none" stroke-width="0.0" d="M 136,197.256 C 136,202.571 131.685,206.886 126.37,206.886 C 121.054,206.886 116.74,202.571 116.74,197.256 C 116.74,191.94 121.054,187.626 126.37,187.626 C 131.685,187.626 136,191.94 136,197.256 Z"/>
        </g>
    </svg>
</svg>
</g>
</svg>