<svg id="svg-persona-brewer" xmlns="http://www.w3.org/2000/svg" version="1.1" viewBox="0 0 223.456 305.637" stroke-width="0.5" overflow="visible">
<defs><style></style></defs>
<g transform="matrix(1,0,0,-1,-25.901441,281.67817)">
    <svg id="face">
        <path fill="#F1C9A5" d="M111.7 57.6c23.9 0 46.1 7.5 64.3 20.4-4.7 31.4-8 45.5-17.8 53.7-5.4 4.6-12.8 6.9-23.8 10.1-2.9.8-7.7 2.2-10.1 2.7v13.4c7.8 4.3 13.7 12.5 16.1 22.5 4.6.3 6.7 1.7 8.7 5.1 1.6 2.6 2.9 7 1.7 10.3-1.1 2.9-3.7 6-7.1 6-.9 0-1.7-.2-2.5-.5-2.3 17-14.7 30-29.5 30s-27.2-13-29.5-30c-.8.4-1.6.5-2.5.5-3.4 0-6-3.1-7.1-6-1.2-3.3.1-7.7 1.7-10.3 2-3.4 4.1-4.8 8.7-5.1 2.4-10 8.4-18.2 16.1-22.5v-13.4c-2.4-.5-7.2-1.9-10.1-2.7-11-3.2-18.4-5.5-23.8-10.1-9.8-8.2-13.1-22.3-17.8-53.7 18.2-12.9 40.4-20.4 64.3-20.4z" marker-start="none" marker-end="none"/>
        <path fill="#E4B992" d="M111.7 57.6c23.9 0 46.1 7.5 64.3 20.4-4.7 31.4-8 45.5-17.8 53.7-5.4 4.6-12.8 6.9-23.8 10.1-2.9.8-7.7 2.2-10.1 2.7v13.4c7.8 4.3 13.7 12.5 16.1 22.5 4.6.3 6.7 1.7 8.7 5.1 1.6 2.6 2.9 7 1.7 10.3-1.1 2.9-3.7 6-7.1 6-.9 0-1.7-.2-2.5-.5-2.3 17-14.7 30-29.5 30V57.6z" marker-start="none" marker-end="none"/>
    </svg>
    <svg id="male-hair">
        <svg id="male-hair-head">
            <path fill="#4A1518" d="M74.1 211.3c.4 3.6 1.5 9 2.2 12 2.3 9.7 7.6 16.5 17.6 16.6 4 2.8 10.8 6.6 17.9 6.7 21-.1 32-8.7 35.5-23.2.7-3 1.8-8.4 2.2-12-.2.1-7.9-11.7-8-15.6.1.1-1.8 0-2.6.2-.4 3-.2 9.6-.4 15.1-19.2-1.7-31.7 2.6-40.2 12.9-3.9-.2-7.7-3.7-9.8-7.1-3.8-6-3.1-15.9-3.7-20.9-.7-.2-2.7-.1-2.6-.2-.2 3.8-7.9 15.6-8.1 15.5z" marker-start="none" marker-end="none"/>
        </svg>
        <svg id="male-hair-mustache">
            <path fill="#4A1518" d="M 111.728,169.802 C 105.207,169.802 100.608,164.862 93.621,164.862 C 87.106,165.09 84.348,174.392 83.369,183.513 C 83.128,176.158 83.253,167.595 88.309,158.925 C 95.786,154.024 99.171,152.396 106.589,149.036 L 116.867,149.036 C 124.285,152.396 127.67,154.024 135.147,158.925 C 140.203,167.595 140.328,176.158 140.087,183.513 C 139.108,174.392 136.35,165.09 129.835,164.862 C 122.848,164.862 118.249,169.802 111.728,169.802 Z" stroke-linejoin="round" marker-start="none" marker-end="none"/>
        </svg>
    </svg>
    <svg id="male-clothing">
        <svg id="male-clothing-tshirt">
            <path fill="#7A9686" d="M72.5 64.7c-8.9 3.3-17.3 7.8-24.9 13.2 6.5 41.7 11.3 52 24.9 58.3 5.9 2.7 13.4 4.7 23.6 7.7 1.4-7.4 7.8-12.9 15.6-12.9s14.2 5.6 15.6 12.9c10.1-3 17.7-5 23.6-7.7 13.6-6.3 18.4-16.6 24.9-58.3-7.7-5.4-16-9.8-24.9-13.2-12.2-4.6-25.4-7.1-39.2-7.1-13.8 0-27 2.5-39.2 7.1z" stroke="#7A9686" stroke-width="0.9" marker-start="none" marker-end="none"/>
            <path fill="#4C6758" d="M89.6 142.4c2.1.6 4.4 1.3 6.8 2 1.4-7.4 7.8-12.9 15.6-12.9s13.5 5.5 14.9 12.9c2.4-.7 4.8-1.3 6.9-1.9-2.3-10.3-10.9-18-21.9-18-10.8-.1-20 7.6-22.3 17.9z" marker-start="none" marker-end="none"/>
        </svg>
        <svg id="male-clothing-apron">
            <path fill="#4E3B2F" d="m70 67.5 83.1-.4.3 68.1-9.8 4.4-.2-42c0-1.6-.7-2.9-1.8-3.3-8.3-2.8-18.7-4.5-30-4.4S90 91.7 81.7 94.6c-1.1.4-1.8 1.7-1.8 3.3l.2 42-9.8-4.3-.3-68.1z" marker-start="none" marker-end="none"/>
        </svg>
    </svg>
</g>
</svg>
