<svg id="svg-persona-breeder" xmlns="http://www.w3.org/2000/svg" version="1.1" viewBox="0 0 223.456 305.637" stroke-width="0.5" overflow="visible">
<defs><style></style></defs>
<g transform="matrix(1,0,0,-1,-25.901441,281.67817)">
    <svg id="face">
        <path fill="#f1c9a5" marker-start="none" marker-end="none" d="M 111.728,57.58 C 135.658,57.58 157.838,65.115 176.023,77.94 C 171.279,109.355 167.997,123.432 158.177,131.643 C 152.738,136.268 145.332,138.577 134.373,141.767 C 131.521,142.596 126.711,143.982 124.277,144.51 L 124.278,157.903 C 132.054,162.221 138.002,170.432 140.407,180.443 C 145.044,180.721 147.083,182.158 149.096,185.514 C 150.676,188.148 151.954,192.542 150.754,195.8 C 149.682,198.711 147.022,201.832 143.663,201.832 C 142.799,201.832 141.959,201.638 141.183,201.288 C 138.882,218.286 126.521,231.276 111.728,231.276 C 96.935,231.276 84.574,218.286 82.273,201.288 C 81.497,201.638 80.657,201.832 79.793,201.832 C 76.434,201.832 73.774,198.711 72.702,195.8 C 71.502,192.542 72.78,188.148 74.36,185.514 C 76.373,182.158 78.412,180.721 83.049,180.443 C 85.454,170.432 91.402,162.221 99.178,157.903 L 99.179,144.51 C 96.745,143.982 91.935,142.596 89.083,141.767 C 78.124,138.577 70.718,136.268 65.279,131.643 C 55.459,123.432 52.177,109.355 47.433,77.94 C 65.618,65.115 87.798,57.58 111.728,57.58 Z"/>
        <path fill="#e4b992" marker-start="none" marker-end="none" d="M 111.728,57.58 C 135.658,57.58 157.838,65.115 176.023,77.94 C 171.279,109.355 167.997,123.432 158.177,131.643 C 152.738,136.268 145.332,138.577 134.373,141.767 C 131.521,142.596 126.711,143.982 124.277,144.51 L 124.278,157.903 C 132.054,162.221 138.002,170.432 140.407,180.443 C 145.044,180.721 147.083,182.158 149.096,185.514 C 150.676,188.148 151.954,192.542 150.754,195.8 C 149.682,198.711 147.022,201.832 143.663,201.832 C 142.799,201.832 141.959,201.638 141.183,201.288 C 138.882,218.286 126.521,231.276 111.728,231.276 L 111.728,57.58 Z"/>
    </svg>
    <svg id="male-hair">
    <svg id="male-hair-head">
    <path fill="#f0f0f0" d="M 82.121,186.199 L 81.971,198.949 L 77.304,203.014 C 75.456,214.036 77.476,218.618 82.027,226.081 C 87.272,234.682 97.76,234.008 111.728,233.907 C 125.696,234.008 136.184,234.682 141.429,226.081 C 145.98,218.618 148,214.036 146.152,203.014 L 141.485,198.949 L 141.335,186.199 C 138.55,191.397 135.211,196.245 135.647,204.526 C 136.385,218.029 127.074,231.094 111.728,231.27 C 96.382,231.094 87.071,218.029 87.809,204.526 C 88.245,196.245 84.906,191.397 82.121,186.199 Z" stroke-width="0.5" marker-start="none" marker-end="none"/>
    </svg>
    <svg id="male-hair-mustache">
    <path fill="#f0f0f0" d="M 111.728,175.009 C 110.338,176.025 108.802,176.572 107.217,176.523 C 103.107,176.394 99.67,170.511 95.789,171.871 C 94.416,172.352 93.479,174.385 93.657,175.683 C 92.315,175.144 91.773,173.599 91.893,172.238 C 92.176,169.049 96.618,166.65 100.985,166.689 C 104.987,166.724 108.795,167.44 111.728,169.729 C 114.661,167.44 118.469,166.724 122.471,166.689 C 126.838,166.65 131.28,169.049 131.563,172.238 C 131.683,173.599 131.141,175.144 129.799,175.683 C 129.977,174.385 129.04,172.352 127.667,171.871 C 123.786,170.511 120.349,176.394 116.239,176.523 C 114.654,176.572 113.118,176.025 111.728,175.009 Z" marker-start="none" marker-end="none"/>
    </svg>
    </svg>
    <svg id="male-hair-hat">
    <path fill="#E0D7C7" d="M 80.753,227.287 L 89.873,246.247 C 92.623,252.306 100.937,253.919 106.709,252.451 C 109.385,251.77 110.282,251.737 111.728,251.703 C 113.174,251.737 114.071,251.77 116.747,252.451 C 122.519,253.919 130.833,252.306 133.583,246.247 L 142.703,227.287 C 121.931,221.357 101.282,221.392 80.753,227.287 Z" marker-start="none" marker-end="none"/>
    <path fill="#E0D7C7" d="M 111.728,225.826 C 103.187,225.826 94.681,226.425 87.089,227.564 C 74.233,229.492 64.402,233.581 64.402,230.564 C 64.402,225.765 77.339,214.111 111.728,214.111 C 146.117,214.111 159.054,225.765 159.054,230.564 C 159.054,233.581 149.223,229.492 136.367,227.564 C 128.775,226.425 120.269,225.826 111.728,225.826 Z" marker-start="none" marker-end="none"/>
    </svg>
    <svg id="male-clothing-shirt">
        <path fill="#E1D6D0"  d="M 72.535,64.655 C 63.631,67.995 55.266,72.437 47.607,77.818 C 54.129,119.507 58.896,129.854 72.535,136.141 C 78.399,138.844 85.974,140.826 96.123,143.82 C 97.499,136.455 103.966,130.875 111.728,130.875 C 119.489,130.875 125.956,136.455 127.332,143.82 C 137.48,140.826 145.055,138.844 150.919,136.142 C 164.558,129.855 169.325,119.509 175.848,77.818 C 168.188,72.437 159.823,67.995 150.919,64.655 C 138.723,60.081 125.516,57.58 111.728,57.58 C 97.939,57.58 84.732,60.081 72.535,64.655 Z" stroke="#E1D6D0" stroke-width="0.9" marker-start="none" marker-end="none"/>
        <path fill="#E1D6D0" d="M 97.079,144.386 C 99.537,135.275 102.942,136.277 111.728,130.601 C 106.31,125.328 103.606,119.86 100.055,118.37 C 94.76,123.003 87.547,134.115 88.31,141.694 L 97.079,144.386 Z" stroke="#000000" stroke-width="0.1" marker-start="none" marker-end="none"/>
        <path fill="#E1D6D0" d="M 126.377,144.386 C 123.919,135.275 120.514,136.277 111.728,130.601 C 117.146,125.328 119.85,119.86 123.401,118.37 C 128.696,123.003 135.909,134.115 135.146,141.694 L 126.377,144.386 Z" stroke="#000000" stroke-width="0.1" marker-start="none" marker-end="none"/>
        <path fill="#09446C" d="M 137.826,140.751 C 142.984,139.216 147.279,137.817 150.917,136.142 L 150.917,64.654 C 146.669,63.061 142.299,61.719 137.826,60.648 L 137.826,140.751 Z M 72.537,64.653 L 72.537,136.142 C 76.173,137.817 80.467,139.215 85.626,140.751 L 85.626,60.648 C 81.153,61.719 76.784,63.06 72.537,64.653 Z"  marker-start="none" marker-end="none"/>
    </svg>
</g>
</svg>


