<svg id="svg-persona-breeder" xmlns="http://www.w3.org/2000/svg" version="1.1" viewBox="0 0 223.456 305.637" stroke-width="0.5" overflow="visible">
<defs><style></style></defs>
<g transform="matrix(1,0,0,-1,-25.901441,281.67817)">
	<svg id="female-hair-head">
       <path fill="#D98617" d="m82.1 174.1 4.5-14.4c5.6-4.2 15.2-5.2 24.7-4.7v20.4l-29.2-1.3zm29.2 1.3V155c15.2.7 30.5 4.8 30.5 4.8l1.1 9.1 1 7.8-32.6-1.3z" />
    </svg>
    <svg id="face">
        <path fill="#f1c9a5" d="M 111.728,57.58 C 135.658,57.58 157.838,65.115 176.023,77.94 C 171.279,109.355 167.997,123.432 158.177,131.643 C 152.738,136.268 145.332,138.577 134.373,141.767 C 131.521,142.596 126.711,143.982 124.277,144.51 L 124.278,157.903 C 132.054,162.221 138.002,170.432 140.407,180.443 C 145.044,180.721 147.083,182.158 149.096,185.514 C 150.676,188.148 151.954,192.542 150.754,195.8 C 149.682,198.711 147.022,201.832 143.663,201.832 C 142.799,201.832 141.959,201.638 141.183,201.288 C 138.882,218.286 126.521,231.276 111.728,231.276 C 96.935,231.276 84.574,218.286 82.273,201.288 C 81.497,201.638 80.657,201.832 79.793,201.832 C 76.434,201.832 73.774,198.711 72.702,195.8 C 71.502,192.542 72.78,188.148 74.36,185.514 C 76.373,182.158 78.412,180.721 83.049,180.443 C 85.454,170.432 91.402,162.221 99.178,157.903 L 99.179,144.51 C 96.745,143.982 91.935,142.596 89.083,141.767 C 78.124,138.577 70.718,136.268 65.279,131.643 C 55.459,123.432 52.177,109.355 47.433,77.94 C 65.618,65.115 87.798,57.58 111.728,57.58 Z" marker-start="none" marker-end="none"/>
        <path fill="#e4b992" d="M 111.728,57.58 C 135.658,57.58 157.838,65.115 176.023,77.94 C 171.279,109.355 167.997,123.432 158.177,131.643 C 152.738,136.268 145.332,138.577 134.373,141.767 C 131.521,142.596 126.711,143.982 124.277,144.51 L 124.278,157.903 C 132.054,162.221 138.002,170.432 140.407,180.443 C 145.044,180.721 147.083,182.158 149.096,185.514 C 150.676,188.148 151.954,192.542 150.754,195.8 C 149.682,198.711 147.022,201.832 143.663,201.832 C 142.799,201.832 141.959,201.638 141.183,201.288 C 138.882,218.286 126.521,231.276 111.728,231.276 L 111.728,57.58 Z" marker-start="none" marker-end="none"/>
    </svg>
	<svg id="female-head-short-hair">
        <path fill="#F09235" d="M100.7 213s10.9-13.4 30.1-15.5c19.3-2.1 2.5-41.5 2.5-41.5s5.3 1 16.5 6.9c0 0 21.5 72.7-38.5 72.7-62.4 0-33.2-77.4-33.2-77.4l13-2.7s-7.5 13.1-6.5 27.7c.9 14.6 10.5 29.2 16.1 29.8z" marker-start="none" marker-end="none"/>
   </svg>
	<svg id="female-hair-hat">
        <path fill="#E4E4E5" d="m80.8 227.3 9.1 19c2.8 6.1 11.1 7.7 16.8 6.2 2.7-.7 3.6-.7 5-.7s2.3.1 5 .7c5.8 1.5 14.1-.1 16.8-6.2l9.1-19c-20.7-5.9-41.3-5.9-61.8 0z" marker-start="none" marker-end="none"/>
        <path fill="#dbdbe0" d="M111.7 225.8c-8.5 0-17 .6-24.6 1.7-12.9 1.9-22.7 6-22.7 3 0-4.8 12.9-16.5 47.3-16.5s47.3 11.7 47.3 16.5c0 3-9.8-1.1-22.7-3-7.5-1.1-16-1.7-24.6-1.7z" marker-start="none" marker-end="none"/>
    </svg>
    <svg id="female-clothing-shirt">
        <path fill="#E4E4E5" d="M72.5 64.7c-8.9 3.3-17.3 7.8-24.9 13.2 6.5 41.7 11.3 52 24.9 58.3 5.9 2.7 13.4 4.7 23.6 7.7 1.4-7.4 7.8-12.9 15.6-12.9s14.2 5.6 15.6 12.9c10.1-3 17.7-5 23.6-7.7 13.6-6.3 18.4-16.6 24.9-58.3-7.7-5.4-16-9.8-24.9-13.2-12.2-4.6-25.4-7.1-39.2-7.1-13.8 0-27 2.5-39.2 7.1z" stroke="#E4E4E5" stroke-width="0.9" marker-start="none" marker-end="none"/>
        <path fill="#E4E4E5" d="M97.1 144.4c2.5-9.1 5.9-8.1 14.6-13.8-5.4-5.3-8.1-10.7-11.7-12.2-5.3 4.6-12.5 15.7-11.7 23.3l8.8 2.7zm29.3 0c-2.5-9.1-5.9-8.1-14.6-13.8 5.4-5.3 8.1-10.7 11.7-12.2 5.3 4.6 12.5 15.7 11.7 23.3l-8.8 2.7z" stroke="#000000" stroke-width="0.1" marker-start="none" marker-end="none"/>
        <path fill="#AAB337" d="M137.8 140.8c5.2-1.5 9.5-2.9 13.1-4.6V64.7c-4.2-1.6-8.6-2.9-13.1-4v80.1zM72.5 64.7v71.5c3.6 1.7 7.9 3.1 13.1 4.6V60.6c-4.4 1.1-8.8 2.5-13.1 4.1z" marker-start="none" marker-end="none"/>
    </svg>
</g>
</svg>
