<svg id="svg-persona-chef" xmlns="http://www.w3.org/2000/svg" version="1.1" viewBox="0 0 223 306" stroke-width="0.5" overflow="visible">
<defs><style></style></defs>
<g transform="matrix(1 0 0 -1 -19.164 311.407)">
  <svg id="face">
    <path fill="#f1c9a5" d="M111.7 57.6c23.9 0 46.1 7.5 64.3 20.4-4.7 31.4-8 45.5-17.8 53.7-5.4 4.6-12.8 6.9-23.8 10.1-2.9.8-7.7 2.2-10.1 2.7v13.4c7.8 4.3 13.7 12.5 16.1 22.5 4.6.3 6.7 1.7 8.7 5.1 1.6 2.6 2.9 7 1.7 10.3-1.1 2.9-3.7 6-7.1 6-.9 0-1.7-.2-2.5-.5-2.3 17-14.7 30-29.5 30s-27.2-13-29.5-30c-.8.4-1.6.5-2.5.5-3.4 0-6-3.1-7.1-6-1.2-3.3.1-7.7 1.7-10.3 2-3.4 4.1-4.8 8.7-5.1 2.4-10 8.4-18.2 16.1-22.5v-13.4c-2.4-.5-7.2-1.9-10.1-2.7-11-3.2-18.4-5.5-23.8-10.1-9.8-8.2-13.1-22.3-17.8-53.7 18.2-12.9 40.4-20.4 64.3-20.4z"/>
    <path fill="#e4b992" d="M111.7 57.6c23.9 0 46.1 7.5 64.3 20.4-4.7 31.4-8 45.5-17.8 53.7-5.4 4.6-12.8 6.9-23.8 10.1-2.9.8-7.7 2.2-10.1 2.7v13.4c7.8 4.3 13.7 12.5 16.1 22.5 4.6.3 6.7 1.7 8.7 5.1 1.6 2.6 2.9 7 1.7 10.3-1.1 2.9-3.7 6-7.1 6-.9 0-1.7-.2-2.5-.5-2.3 17-14.7 30-29.5 30V57.6z"/>
  </svg>
 <svg id="male-hair">
  <svg id="male-hair-head">
    <path fill="#e5e5e5" marker-start="none" marker-end="none" d="M 79.793,201.832 C 79.11,201.832 78.457,201.703 77.84,201.473 L 77.536,209.034 C 77.536,228.019 92.855,243.429 111.726,243.429 L 111.728,243.43 L 111.729,243.429 C 130.6,243.429 145.92,228.019 145.92,209.034 L 145.616,201.473 C 144.999,201.703 144.346,201.832 143.663,201.832 C 142.799,201.832 141.959,201.638 141.183,201.288 C 139.346,213.189 130.25,223.584 124.646,224.739 C 118.903,225.922 116.952,222.421 111.728,222.421 C 106.504,222.421 104.553,225.922 98.81,224.739 C 93.206,223.584 84.11,213.189 82.273,201.288 C 81.497,201.638 80.657,201.832 79.793,201.832 Z"/>
  </svg>
  <svg id="male-hair-mustache">
    <path fill="#e5e5e5" d="M 111.728,175.009 C 110.338,176.025 108.802,176.572 107.217,176.523 C 103.107,176.394 99.67,170.511 95.789,171.871 C 94.416,172.352 93.479,174.385 93.657,175.683 C 92.315,175.144 91.773,173.599 91.893,172.238 C 92.176,169.049 96.618,166.65 100.985,166.689 C 104.987,166.724 108.795,167.44 111.728,169.729 C 114.661,167.44 118.469,166.724 122.471,166.689 C 126.838,166.65 131.28,169.049 131.563,172.238 C 131.683,173.599 131.141,175.144 129.799,175.683 C 129.977,174.385 129.04,172.352 127.667,171.871 C 123.786,170.511 120.349,176.394 116.239,176.523 C 114.654,176.572 113.118,176.025 111.728,175.009 Z" marker-start="none" marker-end="none"/> 
  </svg>
 </svg>
  <svg id="male-clothing">
    <svg id="male-clothing-tunic">
      <path fill="#ffffff" marker-start="none" marker-end="none" d="M 47.433,77.94 C 55.243,129.649 59.626,134.081 94.497,143.395 C 97.685,131.328 103.629,125.335 111.728,120.392 C 119.827,125.335 125.771,131.328 128.959,143.395 C 163.829,134.081 168.212,129.649 176.022,77.94 C 157.837,65.115 135.657,57.58 111.728,57.58 C 87.798,57.58 65.618,65.115 47.433,77.94 Z"
      stroke="#e5e5e5" stroke-width="0.5"/>
    </svg>
    <svg id="male-clothing-accessory">
        <path fill="#e5e5e5" d="M95.4 144c2.5-9.1 7.5-17.7 16.3-23.4-5.2-5.8-11.2-4.5-15.7-1.7-6.7 4.3-8.5 15.2-7.8 22.7l7.2 2.4z" id="tmp-431"/>
        <path fill="#e5e5e5" d="M128.1 144c-2.5-9.1-7.5-17.7-16.3-23.4 5.2-5.8 11.2-4.5 15.7-1.7 6.8 4.4 8.5 15.4 7.7 23-2.2 1.3-4.6 2.1-7.1 2.1z" id="tmp-434"/>
        <circle fill="#e5e5e5" cx="95.7" cy="105.3" r="5.2"/>
        <circle fill="#e5e5e5" cx="129.1" cy="105.7" r="5.2"/>
    </svg>
    <svg id="male-clothing-aprons">
        <path fill="#464b50" d="m69.8 67 83.1-.4.3 68.1-9.8 4.4-.2-42c0-1.6-.7-2.9-1.8-3.3-8.3-2.8-18.7-4.5-30-4.4s-21.6 1.8-29.9 4.7c-1.1.4-1.8 1.7-1.8 3.3l.2 42-9.8-4.3-.3-68.1z"/>
    </svg> 
  </svg>
  <svg id="male-hat-chef" y="215px" x="54px">
    <path fill="#e5e5e5" stroke-width="0.0" d="M0.87,42.13c-2.17,7.05-0.29,13.31,5,18.45c2.92,2.81,6.71,4.54,10.74,4.9c4.01,0.45,8.06-0.39,11.55-2.41 c0.37,1.18,0.65,2.36,1.11,3.46c1.74,4.1,4.78,7.51,8.64,9.73c6.13,3.71,13.29,5.36,20.43,4.68c5.25-0.3,10.35-1.91,14.83-4.66 c3.87-2.25,6.91-5.68,8.67-9.8c0.39-1.08,0.66-2.24,1-3.32c8.25,3.96,16.04,3.43,22.75-3.1c5.11-4.64,6.86-11.94,4.4-18.39 c-2.6-7.63-8.39-11.63-16.39-12.63c-0.21-1.39-0.43-2.84-0.64-4.29c-0.87-5.97-4.13-14-4.79-19.06c-0.05-1.28-0.91-2.39-2.14-2.76 c-1.84-0.6-3.72-1.06-5.63-1.39C70.74,0.05,61-0.08,51.25,0.05c-6.64,0.01-13.28,0.46-19.86,1.36c-2,0.31-3.92,0.83-5.92,1.31 c-0.53,0.17-1.03,0.41-1.49,0.73c-0.57,0.36-0.94,0.96-1,1.63c-0.78,5.39-4.26,15.37-5.26,22c-0.1,0.68-0.19,1.34-0.29,2 C9.24,30.15,3.38,34.22,0.87,42.13z"/>
  </svg>
</g>
</svg>
