<svg id="svg-persona-consumer" xmlns="http://www.w3.org/2000/svg" version="1.1" viewBox="0 0 223.456 305.637" stroke-width="0.5" overflow="visible">
 <defs><style></style></defs>
	<g>
		<svg id="face">
			<path fill="#F1C9A5" d="M111.7 248.1c23.9 0 46.1-7.5 64.3-20.4-4.7-31.4-8-45.5-17.8-53.7-5.4-4.6-12.8-6.9-23.8-10.1-2.9-.8-7.7-2.2-10.1-2.7v-13.4c7.8-4.3 13.7-12.5 16.1-22.5 4.6-.3 6.7-1.7 8.7-5.1 1.6-2.6 2.9-7 1.7-10.3-1.1-2.9-3.7-6-7.1-6-.9 0-1.7.2-2.5.5-2.3-17-14.7-30-29.5-30s-27.2 13-29.5 30c-.8-.4-1.6-.5-2.5-.5-3.4 0-6 3.1-7.1 6-1.2 3.3.1 7.7 1.7 10.3 2 3.4 4.1 4.8 8.7 5.1 2.4 10 8.4 18.2 16.1 22.5v13.4c-2.4.5-7.2 1.9-10.1 2.7-11 3.2-18.4 5.5-23.8 10.1-9.8 8.2-13.1 22.3-17.8 53.7 18.2 12.8 40.4 20.4 64.3 20.4z" marker-start="none" marker-end="none"/>
			<path fill="#E4B992" d="M111.7 248.1c23.9 0 46.1-7.5 64.3-20.4-4.7-31.4-8-45.5-17.8-53.7-5.4-4.6-12.8-6.9-23.8-10.1-2.9-.8-7.7-2.2-10.1-2.7v-13.4c7.8-4.3 13.7-12.5 16.1-22.5 4.6-.3 6.7-1.7 8.7-5.1 1.6-2.6 2.9-7 1.7-10.3-1.1-2.9-3.7-6-7.1-6-.9 0-1.7.2-2.5.5-2.3-17-14.7-30-29.5-30v173.7z" marker-start="none" marker-end="none"/>
		</svg>
		<svg id="female-head-long-hair">
			<path fill="#6D462B" d="M55.9 157.9c-.9-11.2 7-15.5 7-23.7 0-8.6-8.6-13.3-7.3-24.6C57 97.4 66 94.5 70.5 86.5c5.3-9.5 3.3-21 14.2-29.5 7.7-5.9 19.4-8.6 28.5-6.1 5.8-2 12.2-2.1 17.6.3 8.3 3.7 14.8 11.6 18.3 20.1 2.7 6.4 1.9 13.9 4.3 20.4 2.8 7.4 9.6 10 11.5 20.7 1.8 10.1-4.2 13.7-2.7 20.4 2 9.5 9.2 14.5 8.5 22.5-.7 7.5-5.1 13.8-11.3 19.4L124.1 161v-13.4c7.3-4.1 12.9-11.6 15.6-20.8-2.5-1.4-4.4-3.9-5.3-6.5-2.4-7.3 4.9-16.3 1.2-23-5.6-10.2-10.9-4.6-16.7-9.2-3-2.4-4.8-6.3-4.5-10.5-2.7 6.9-8.5 10.5-14.1 14.8-3.9 3-12.4 5.9-13.2 13.6-.7 6.7 5.1 12.8 3.7 19.2-.6 3-2.2 5.9-5.2 7.6 3.1 6.5 7.8 11.7 13.4 14.8V161l-35.3 13.6c-4.9-5.3-7.2-10.5-7.8-16.7z" marker-start="none" marker-end="none"/>
		</svg>
		<svg id="female-clothing-tshirt">
			<path fill="#CE8699" d="M111.7 174.6c-3.9 0-9.8-.7-15.6-3.3l-.1-9.4c-4.7 1.4-21.2 5.9-24.3 8-2.3 26-3.7 49.2-5.3 68.5 14.4 6.7 28.5 9.6 45.4 9.6s30-2.6 44.3-9.3c-1.9-19.8-2-42.2-4.3-68.9-3.1-1.8-18.8-6.8-24.1-7.9v9.4c-4.9 2.7-12.1 3.3-16 3.3z" marker-start="none" marker-end="none"/>
			<path fill="#CE8699" d="M53.3 193.4c-1.8 7.1-2.1 8.8-4 18l18.8 4.3 3.6-45.8c-10.5 5.1-14.8 13.4-18.4 23.5z" marker-start="none" marker-end="none"/>
			<path fill="#C14D71" d="M50.3 206.9c-.4 1.8-.6 3-.9 4.5l18.7 4.3.3-4.2-18.1-4.6z" marker-start="none" marker-end="none"/>
			<path fill="#CE8699" d="m150.9 169.5 3.6 45.8 18.8-4.3c-1.9-9.2-2.2-10.9-4-18-3.6-10.2-6.5-17.9-18.4-23.5z" marker-start="none" marker-end="none"/>
			<path fill="#C14D71" d="m154.2 211.1.3 4.2 18.7-4.3c-.3-1.5-.5-2.7-.9-4.5l-18.1 4.6z" marker-start="none" marker-end="none"/>
		</svg>
	</g>
</svg>
