<svg id="svg-persona-farmer"  xmlns="http://www.w3.org/2000/svg" version="1.1" viewBox="0 0 223.456 305.637" stroke-width="0.5" overflow="visible">
  <defs><style></style></defs>
<g transform="matrix(1,0,0,-1,-25.901441,281.67817)">
	<svg id="female-hair-double-ponytail">
    <path fill="#30302E" d="m129.9 187.4-38.4 1.8c-32.4-28.2-12.6-46.4-6.2-55.3C98.1 116 84 109.8 84 109.8l.7.3s24.9 4.2 15.6 23.6c-4.7 9.6-7.5 30.3 29.6 53.7z" marker-start="none" marker-end="none"/>
    <path fill="#30302E" d="M138.8 133.8c6.3 8.9 26.1 27.1-6.2 55.3l-38.4-1.8c37.1-23.4 34.2-44.1 29.6-53.8-9.3-19.4 15.6-23.6 15.6-23.6l.7-.3c-.1.1-14.1 6.3-1.3 24.2z" marker-start="none" marker-end="none"/>
  </svg>
  <svg id="face">
    <path fill="#f1c9a5" d="M 111.728,57.58 C 135.658,57.58 157.838,65.115 176.023,77.94 C 171.279,109.355 167.997,123.432 158.177,131.643 C 152.738,136.268 145.332,138.577 134.373,141.767 C 131.521,142.596 126.711,143.982 124.277,144.51 L 124.278,157.903 C 132.054,162.221 138.002,170.432 140.407,180.443 C 145.044,180.721 147.083,182.158 149.096,185.514 C 150.676,188.148 151.954,192.542 150.754,195.8 C 149.682,198.711 147.022,201.832 143.663,201.832 C 142.799,201.832 141.959,201.638 141.183,201.288 C 138.882,218.286 126.521,231.276 111.728,231.276 C 96.935,231.276 84.574,218.286 82.273,201.288 C 81.497,201.638 80.657,201.832 79.793,201.832 C 76.434,201.832 73.774,198.711 72.702,195.8 C 71.502,192.542 72.78,188.148 74.36,185.514 C 76.373,182.158 78.412,180.721 83.049,180.443 C 85.454,170.432 91.402,162.221 99.178,157.903 L 99.179,144.51 C 96.745,143.982 91.935,142.596 89.083,141.767 C 78.124,138.577 70.718,136.268 65.279,131.643 C 55.459,123.432 52.177,109.355 47.433,77.94 C 65.618,65.115 87.798,57.58 111.728,57.58 Z" marker-start="none" marker-end="none"/>
    <path fill="#e4b992" d="M 111.728,57.58 C 135.658,57.58 157.838,65.115 176.023,77.94 C 171.279,109.355 167.997,123.432 158.177,131.643 C 152.738,136.268 145.332,138.577 134.373,141.767 C 131.521,142.596 126.711,143.982 124.277,144.51 L 124.278,157.903 C 132.054,162.221 138.002,170.432 140.407,180.443 C 145.044,180.721 147.083,182.158 149.096,185.514 C 150.676,188.148 151.954,192.542 150.754,195.8 C 149.682,198.711 147.022,201.832 143.663,201.832 C 142.799,201.832 141.959,201.638 141.183,201.288 C 138.882,218.286 126.521,231.276 111.728,231.276 L 111.728,57.58 Z" marker-start="none" marker-end="none"/>
  </svg>
  <svg id="female-hair-head">
     <path fill="#30302E" d="M112.1 231.7c-20.4 0-29.5-7.8-29.5-36.4l3.4 2.4c16.3 0 30.3 8.3 40.4 16.2 4.3-10.3 15.2-18.6 15.2-18.6 0 28.6-9 36.4-29.5 36.4z" marker-start="none" marker-end="none"/>
  </svg>
  <svg id="female-hair-hat">
    <path fill="#E2A84B" d="m80.8 222.3 9.1 19c2.8 6.1 11.1 7.7 16.8 6.2 2.7-.7 3.6-.7 5-.7s2.3.1 5 .7c5.8 1.5 14.1-.1 16.8-6.2l9.1-19c-20.7-5.9-41.3-5.9-61.8 0z" marker-start="none" marker-end="none"/>
    <path fill="#BF8A3D" d="M111.7 220.8c-8.5 0-17 .6-24.6 1.7-12.9 1.9-22.7 6-22.7 3 0-4.8 12.9-16.5 47.3-16.5s47.3 11.7 47.3 16.5c0 3-9.8-1.1-22.7-3-7.5-1.1-16-1.7-24.6-1.7z" marker-start="none" marker-end="none"/>
  </svg>
  <svg id="female-clothing">
    <path fill="#A3D5E0" d="M47.4 77.9c7.8 51.7 12.2 56.1 47.1 65.5 3.2-12.1 9.1-33.6 17.2-38.6 8.1 4.9 14 26.5 17.2 38.6 34.9-9.3 39.3-13.7 47.1-65.5-18.2-12.8-40.4-20.4-64.3-20.4-23.9.1-46.1 7.6-64.3 20.4z" marker-start="none" marker-end="none"/>
    <path fill="#6F6E3A" d="m70.6 135.1 9.8 4.3-.2-42c0-1.6.7-2.9 1.8-3.3 8.3-2.9 18.6-4.6 29.9-4.7s21.7 1.6 30 4.4c1.1.4 1.8 1.7 1.8 3.3l.2 42 9.8-4.4-.3-68.1-83.1.4.3 68.1z" marker-start="none" marker-end="none"/>
    <circle fill="#424131" cx="75.6" cy="95.6" r="2.8"/>
    <circle fill="#424131" cx="148.4" cy="95.6" r="2.8"/>
  </svg>
</g>
</svg>
