<svg id="svg-persona-farmer"  xmlns="http://www.w3.org/2000/svg" version="1.1" viewBox="0 0 223.456 305.637" stroke-width="0.5" overflow="visible">
  <defs><style></style></defs>
  <g transform="matrix(-.99998 -.00736 -.00693 1.06273 196.08 -35.125)">
    <svg id="face">
    <path fill="#e4b992" d="M135.9 36.3c23.9 0 46.1 7.5 64.3 20.4-4.7 31.4-8 45.5-17.8 53.7-5.4 4.6-12.8 6.9-23.8 10.1-2.9.8-7.7 2.2-10.1 2.7v13.4c7.8 4.3 13.7 12.5 16.1 22.5 4.6.3 6.7 1.7 8.7 5.1 1.6 2.6 2.9 7 1.7 10.3-1.1 2.9-3.7 6-7.1 6-.9 0-1.7-.2-2.5-.5-2.3 17-14.7 30-29.5 30s-27.2-13-29.5-30c-.8.4-1.6.5-2.5.5-3.4 0-6-3.1-7.1-6-1.2-3.3.1-7.7 1.7-10.3 2-3.4 4.1-4.8 8.7-5.1 2.4-10 8.4-18.2 16.1-22.5v-13.4c-2.4-.5-7.2-1.9-10.1-2.7-11-3.2-18.4-5.5-23.8-10.1-9.8-8.2-13.1-22.3-17.8-53.7 18.1-12.9 40.3-20.4 64.3-20.4Z" transform="matrix(1 0 0 -1 -25.901 281.678)" marker-start="none" marker-end="none"/>
    <path fill="#f1c9a5" d="M135.9 36.3c23.9 0 46.1 7.5 64.3 20.4-4.7 31.4-8 45.5-17.8 53.7-5.4 4.6-12.8 6.9-23.8 10.1-2.9.8-7.7 2.2-10.1 2.7v13.4c7.8 4.3 13.7 12.5 16.1 22.5 4.6.3 6.7 1.7 8.7 5.1 1.6 2.6 2.9 7 1.7 10.3-1.1 2.9-3.7 6-7.1 6-.9 0-1.7-.2-2.5-.5-2.3 17-14.7 30-29.5 30z"  transform="matrix(1 0 0 -1 -25.901 281.678)" marker-start="none" marker-end="none"/>
    </svg>
    <svg id="male-hair">
    <svg id="male-hair-mustache">
    <path fill="#a7795e" d="M105 179.3c1.2 1.5 2.4 3 3.7 4.5v-2.1c-.3-19.2 7.1-27.4 7.1-27.4l9.3-.9c7.3-.7 14.6-.6 21.8.3l9.3 1.1s7.2 8.4 6.4 27.6v2.1s2-2.2 3.8-4.4c.5-1.9 1.3-3.9 1.3-6.2.2-16.9-10.3-41.5-31.4-41.8-21.1-.3-31.7 24-31.9 41-.1 2.2.2 4.3.6 6.2zm37.8-29.8-13.5-.2c-1.8 0-3.4-1.1-4.1-2.6 2.5-1 6.3-1.6 10.6-1.5 4.5.1 8.5.8 11 2-.7 1.4-2.2 2.3-4 2.3z"  transform="matrix(1 0 0 -1 -25.901 281.678)"  marker-start="none" marker-end="none"/>
    <path fill="#543d38" d="M109.699 129.078c0-3.8 3-4.7 5.1-3.8 3.8 1.6 7.9 6.3 11.4 3.3 0 0-1.1 6.1-3.2 6.1-4.1.1-13.3.8-13.3-5.6z" marker-start="none" marker-end="none"/>
    <path fill="#543d38" d="M110.599 129.078c0-3.8-3.1-4.6-5.2-3.7-3.7 1.7-7.8 6.5-11.3 3.6 0 0 1.3 6 3.3 6 4.2 0 13.3.5 13.2-5.9z" marker-start="none" marker-end="none"/>
    </svg>
    <svg id="male-hair-head">
    <path fill="#543d38" d="M110.599 129.078m31.2-17.4-6.1 1.5s-2.6-16.6-4-23.5c3.4.8 6.5 1.7 9.4 2.9.6 4 .7 8.8.8 14.5.1 1.5 0 3-.1 4.6zm-63.2 1 6.2 1.3s2.1-16.7 3.3-23.7c-3.3.9-6.5 1.9-9.3 3.1-.5 4-.4 8.8-.4 14.5 0 1.6.1 3.2.2 4.8zm18-15.6-5.6-7.6c5.8-1.4 12.1-2.2 18.8-2.3 4.1-.1 8 .2 11.8.6-3.6-.3-17.5 2.3-25 9.3z" marker-start="none" marker-end="none"/>
    </svg>
    <svg id="male-hair-hat">
    <path fill="#ffd24f" d="m78.8 86 9.1-19c2.8-6.1 11.1-7.7 16.8-6.2 2.7.7 3.6.7 5 .7s2.3-.1 5-.7c5.8-1.5 14.1.1 16.8 6.2l9.1 19c-20.6 5.9-41.3 5.9-61.8 0Z" marker-start="none" marker-end="none"/>
    <path fill="#ffbe1e" d="M109.8 87.4c-8.5 0-17-.6-24.6-1.7-12.9-1.9-22.7-6-22.7-3 0 4.8 12.9 16.5 47.3 16.5s47.3-11.7 47.3-16.5c0-3-9.8 1.1-22.7 3-7.6 1.1-16.1 1.7-24.6 1.7z" marker-start="none" marker-end="none"/>
    </svg>
    </svg>
    <svg id="male-clothing-shirt">
    <path fill="#ff6953" d="M96.4 43.1c-9 3.4-17.4 7.8-25.1 13.2 6.6 41.8 11.4 52.2 25.1 58.5 5.9 2.7 13.5 4.7 23.7 7.7 1.4-7.4 7.9-13 15.7-13 7.8 0 14.3 5.6 15.7 13 10.2-3 17.8-5 23.7-7.7 13.7-6.3 18.5-16.7 25.1-58.5-7.7-5.4-16.1-9.9-25.1-13.2-12.2-4.6-25.5-7.1-39.4-7.1-13.8 0-27.1 2.5-39.4 7.1Z" transform="matrix(1 0 0 -1 -25.901 281.678)" marker-start="none" marker-end="none"/>
    <path fill="#ffbe1e" d="M95.299 158.378c2.5 9.1 5.9 8.1 14.6 13.8-5.4 5.3-8.1 10.7-11.7 12.2-5.3-4.6-12.5-15.7-11.7-23.3zm29.3 0c-2.5 9.1-5.9 8.1-14.6 13.8 5.4 5.3 8.1 10.7 11.7 12.2 5.3-4.6 12.5-15.7 11.7-23.3z" marker-start="none" marker-end="none"/>
    <path fill="#c55f54" d="m94.5 113.8 9.8 4.3-.2-42c0-1.6.7-2.9 1.8-3.3 8.3-2.9 18.6-4.6 29.9-4.7 11.3-.1 21.7 1.6 30 4.4 1.1.4 1.8 1.7 1.8 3.3l.2 42 9.8-4.4-.3-68.1-83.1.4z" transform="matrix(1 0 0 -1 -25.901 281.678)" marker-start="none" marker-end="none"/>
    </svg> 
  </g>
 </svg>