<svg id="svg-persona-food-manufacturer" xmlns="http://www.w3.org/2000/svg" version="1.1" viewBox="0 0 223.5 305.6" style="enable-background:new 0 0 223.5 305.6" stroke-width="0.5" overflow="visible">
<defs><style></style></defs>
<g>
<svg id="face">
  <path fill="#e4b992" d="M110 245.4c23.9 0 46.1-7.5 64.3-20.4-4.7-31.4-8-45.5-17.8-53.7-5.4-4.6-12.8-6.9-23.8-10.1-2.9-.8-7.7-2.2-10.1-2.7v-13.4c7.8-4.3 13.7-12.5 16.1-22.5 4.6-.3 6.7-1.7 8.7-5.1 1.6-2.6 2.9-7 1.7-10.3-1.1-2.9-3.7-6-7.1-6-.9 0-1.7.2-2.5.5-2.3-17-14.7-30-29.5-30s-27.2 13-29.5 30c-.8-.4-1.6-.5-2.5-.5-3.4 0-6 3.1-7.1 6-1.2 3.3.1 7.7 1.7 10.3 2 3.4 4.1 4.8 8.7 5.1 2.4 10 8.4 18.2 16.1 22.5v13.4c-2.4.5-7.2 1.9-10.1 2.7-11 3.2-18.4 5.5-23.8 10.1-9.8 8.2-13.1 22.3-17.8 53.7 18.1 12.9 40.3 20.4 64.3 20.4z" transform="matrix(-.99998 -.00736 -.00693 1.06273 196.08 -35.125)" marker-start="none" marker-end="none"/>
  <path fill="#f1c9a5" d="M110 245.4c23.9 0 46.1-7.5 64.3-20.4-4.7-31.4-8-45.5-17.8-53.7-5.4-4.6-12.8-6.9-23.8-10.1-2.9-.8-7.7-2.2-10.1-2.7v-13.4c7.8-4.3 13.7-12.5 16.1-22.5 4.6-.3 6.7-1.7 8.7-5.1 1.6-2.6 2.9-7 1.7-10.3-1.1-2.9-3.7-6-7.1-6-.9 0-1.7.2-2.5.5-2.3-17-14.7-30-29.5-30v173.7z" transform="matrix(-.99998 -.00736 -.00693 1.06273 196.08 -35.125)" marker-start="none" marker-end="none"/>
</svg>
<svg id="male-hair">
  <path fill="#10303f" d="M53.5 72c-.7 0-1.3.1-2 .4l-.3-7.6c0-19 15.3-34.4 34.2-34.4 18.9 0 34.2 15.4 34.2 34.4l-.3 7.6c-.6-.2-1.3-.4-2-.4-.9 0-1.7.2-2.5.5C113 60.6 103.9 50.2 98.3 49c-5.7-1.2-7.7 2.3-12.9 2.3s-7.2-3.5-12.9-2.3C67 50.3 57.9 60.7 56 72.6c-.8-.4-1.6-.6-2.5-.6z" marker-start="none" marker-end="none"/>
</svg> 
<svg id="male-mask">
  <path fill="#e4f0f2" d="M107.1 94c-.1 0-.2-.1-.3-.1-.3-.2-.4-.6-.2-.9l6.7-8.7c.2-.3.6-.3 1-.1.3.2.4.6.2.9l-6.7 8.7c-.1.1-.4.2-.7.2zm-44.2 0c-.3.1-.5 0-.7-.2l-6.5-8.9c-.2-.3-.1-.7.2-.9.3-.2.7-.1 1 .1l6.5 8.9c.2.3.1.7-.2.9-.1 0-.2.1-.3.1z" marker-start="none" marker-end="none"/>
  <path fill="#e4f0f2" d="m109.9 105.9-2-13.8-22.8-3.2L62.2 92l-2 13.8c7 12.9 19 17.5 24.8 17.5s17.9-4.5 24.9-17.4z" marker-start="none" marker-end="none"/>
</svg>
<svg id="male-safety-glasses">
  <path fill="#ffffff" d="M112.5 69.5c-.4-.4-.9-.6-1.5-.6-.5 0-1.1.2-1.4.6-2.3-2.8-5.5-4.7-9.1-5.4a82.85 82.85 0 0 0-30.6 0c-3.6.7-6.8 2.6-9.1 5.4-.4-.4-.9-.6-1.4-.6-.5 0-1.1.2-1.5.6l-1.7 1.6c-.6.5-.9 1.3-.9 2V83c0 1.6.8 3 2.1 3.9 4.8 3.2 10.6 4.9 16.5 4.8.9 0 1.8-.3 2.5-.7.8-.4 1.4-1.1 1.8-1.8 0 0 3.8-6.6 5-8.9.3-.5.7-.8 1.2-1 .5-.2 1.1-.2 1.6 0s1 .5 1.2 1c1.2 2.2 5 8.9 5 8.9.4.8 1.1 1.4 1.9 1.9.8.4 1.7.7 2.7.6 5.8.1 11.5-1.6 16.2-4.8 1.3-.9 2.1-2.4 2.1-3.9v-9.8c0-.8-.3-1.5-.9-2l-1.7-1.7zm-51.3 4.9.8-.8c.4-.3.6-.8.6-1.3s-.2-1-.5-1.3c2-2.5 4.9-4.3 8.1-4.9 9.9-1.8 20-1.8 29.8 0 3.2.6 6.1 2.4 8.1 4.9-.3.4-.5.8-.5 1.3s.2 1 .6 1.3l.8.8v6.5c0 .5-.1 1-.4 1.4-.3.4-.6.8-1.1 1-2.6 1.4-5.4 2.3-8.4 2.5-.6.1-1.2 0-1.7-.3s-1-.7-1.3-1.2c0 0-2.9-5.1-3.8-6.8-1-1.7-2.5-3-4.4-3.7-1.9-.7-3.9-.7-5.8 0s-3.4 2-4.4 3.7c-.9 1.7-3.8 6.8-3.8 6.8-.3.5-.7.9-1.3 1.2-.5.3-1.1.4-1.7.3-3-.3-5.8-1.1-8.4-2.5-.4-.3-.8-.6-1.1-1-.3-.4-.4-.9-.4-1.4l.2-6.5zm51.9 8.6c0 .9-.5 1.8-1.3 2.4-4.4 3-9.7 4.5-15.1 4.5-.6 0-1.1-.1-1.6-.4-.5-.3-.9-.7-1.2-1.2 0 0-3.8-6.6-5-8.9-.5-.9-1.3-1.5-2.3-1.9-1-.3-2-.3-3 0s-1.8 1-2.3 1.9c-1.2 2.2-5 8.9-5 8.9-.2.5-.6.8-1.1 1.1-.5.3-1 .4-1.5.4-5.5.1-10.8-1.4-15.3-4.5-.8-.5-1.3-1.4-1.3-2.4v-9.8c0-.3.1-.5.3-.7l1.7-1.6 1.4 1.4-1.1 1.1c-.2.2-.3.4-.3.7v6.9c0 .8.2 1.7.6 2.4.4.7 1.1 1.3 1.8 1.7 2.8 1.5 6 2.5 9.2 2.8 1 .1 2-.1 2.9-.5.9-.4 1.6-1.1 2.1-2 0 0 2.9-5.1 3.8-6.8.7-1.3 1.9-2.3 3.4-2.8 1.4-.5 3-.5 4.4 0 1.4.5 2.6 1.5 3.4 2.8.9 1.7 3.8 6.8 3.8 6.8.5.8 1.2 1.5 2.1 2 .9.4 1.9.6 2.9.5 3.2-.3 6.3-1.2 9.2-2.8.8-.4 1.4-1 1.8-1.8.4-.7.7-1.6.6-2.4V74c0-.3-.1-.5-.3-.7l-1.1-1.1 1.4-1.4 1.7 1.6c.2.2.3.4.3.7V83z" marker-start="none" marker-end="none"/>
</svg>
<svg id="male-clothing-dress">
    <path fill="#e4ebf0" d="M70.6 238.4c-9-3.4-17.4-7.8-25.1-13.2 5.8-42.3 11.4-52.2 25.1-58.5 5.9-2.7 13.5-4.7 23.7-7.7 1.4 7.4 7.9 13 15.7 13s14.3-5.6 15.7-13c10.2 3 17.8 5 23.7 7.7 13.7 6.3 19.7 16.6 25.1 58.5-7.7 5.4-16.1 9.9-25.1 13.2-12.2 4.6-25.5 7.1-39.4 7.1-13.8 0-27.1-2.5-39.4-7.1z" transform="matrix(-.99998 -.00736 -.00693 1.06273 196.08 -35.125)" marker-start="none" marker-end="none"/>
    <path fill="#d0d7dc" d="M116.8 138.1c-13.5-4.9-8.5-2.9-15-5.1-3.4-1-1.8-.6-4.1-1.3-2 3-4.6 6.8-12.3 6.9-6.9.1-10.2-3.8-13-6.9-1.5.6-.5.2-2.3.8-13.7 4.2-.6.2-15.7 4.8 3.1 7.4 19.7 16.2 30.4 16.2 10.2 0 27.9-8.2 32-15.4z" marker-start="none" marker-end="none"/>
    <path fill="#d0d7dc" d="M76.7 224.8h4.2v-76.5c-1.4-.3-2.8-.6-4.1-1l-.1 77.5z" marker-start="none" marker-end="none"/>
    <ellipse fill="#d0d7dc" cx="88.2" cy="165" rx="3.1" ry="3"/>
    <ellipse fill="#d0d7dc" cx="88.2" cy="179" rx="3.1" ry="3"/>
    <ellipse fill="#d0d7dc" cx="88.3" cy="194.3" rx="3.1" ry="3"/>
</svg>
</g>
</svg>
