<svg id="svg-persona-government-administrator" xmlns="http://www.w3.org/2000/svg" version="1.1" viewBox="0 0 223.456 305.637" stroke-width="0.5" overflow="visible">
<defs><style></style></defs>
<g transform="matrix(1,0,0,-1,-25.901441,281.67817)">
    <svg id="face">
        <path fill="#f1c9a5"  d="M 111.728,57.58 C 135.658,57.58 157.838,65.115 176.023,77.94 C 171.279,109.355 167.997,123.432 158.177,131.643 C 152.738,136.268 145.332,138.577 134.373,141.767 C 131.521,142.596 126.711,143.982 124.277,144.51 L 124.278,157.903 C 132.054,162.221 138.002,170.432 140.407,180.443 C 145.044,180.721 147.083,182.158 149.096,185.514 C 150.676,188.148 151.954,192.542 150.754,195.8 C 149.682,198.711 147.022,201.832 143.663,201.832 C 142.799,201.832 141.959,201.638 141.183,201.288 C 138.882,218.286 126.521,231.276 111.728,231.276 C 96.935,231.276 84.574,218.286 82.273,201.288 C 81.497,201.638 80.657,201.832 79.793,201.832 C 76.434,201.832 73.774,198.711 72.702,195.8 C 71.502,192.542 72.78,188.148 74.36,185.514 C 76.373,182.158 78.412,180.721 83.049,180.443 C 85.454,170.432 91.402,162.221 99.178,157.903 L 99.179,144.51 C 96.745,143.982 91.935,142.596 89.083,141.767 C 78.124,138.577 70.718,136.268 65.279,131.643 C 55.459,123.432 52.177,109.355 47.433,77.94 C 65.618,65.115 87.798,57.58 111.728,57.58 Z" marker-start="none" marker-end="none"/>
        <path fill="#e4b992"  d="M 111.728,57.58 C 135.658,57.58 157.838,65.115 176.023,77.94 C 171.279,109.355 167.997,123.432 158.177,131.643 C 152.738,136.268 145.332,138.577 134.373,141.767 C 131.521,142.596 126.711,143.982 124.277,144.51 L 124.278,157.903 C 132.054,162.221 138.002,170.432 140.407,180.443 C 145.044,180.721 147.083,182.158 149.096,185.514 C 150.676,188.148 151.954,192.542 150.754,195.8 C 149.682,198.711 147.022,201.832 143.663,201.832 C 142.799,201.832 141.959,201.638 141.183,201.288 C 138.882,218.286 126.521,231.276 111.728,231.276 L 111.728,57.58 Z" marker-start="none" marker-end="none"/>
    </svg>
    <svg id="male-hair">
    <svg id="male-hair-head">
        <path fill="#30302E" d="M74.1 211.3c.4 3.6 1.5 9 2.2 12 2.3 9.7 7.6 16.5 17.6 16.6 4 2.8 10.8 6.6 17.9 6.7 21-.1 32-8.7 35.5-23.2.7-3 1.8-8.4 2.2-12-.2.1-7.9-11.7-8-15.6.1.1-1.8 0-2.6.2-.4 3-.2 9.6-.4 15.1-19.2-1.7-31.7 2.6-40.2 12.9-3.9-.2-7.7-3.7-9.8-7.1-3.8-6-3.1-15.9-3.7-20.9-.7-.2-2.7-.1-2.6-.2-.2 3.8-7.9 15.6-8.1 15.5z" marker-start="none" marker-end="none"/>
    </svg>
    <svg id="male-hair-mustache">
        <path fill="#30302E" d="M 111.728,153.516 L 102.68,157.484 C 105.696,157.774 108.712,158.237 111.728,160.115 C 114.744,158.237 117.76,157.774 120.776,157.484 L 111.728,153.516 Z" stroke-linecap="round" stroke-width="0.5" marker-start="none" marker-end="none"/>
        <path fill="#30302E" d="M 128.736,167.045 C 126.334,169.423 121.256,168.093 117.862,167.757 C 115.853,167.558 112.755,168.946 111.728,170.59 C 110.701,168.946 107.603,167.558 105.594,167.757 C 102.2,168.093 97.122,169.423 94.72,167.045 C 99.812,175.835 105.562,176.916 111.728,175.632 C 117.894,176.916 123.644,175.835 128.736,167.045 Z" marker-start="none" marker-end="none"/>
    </svg>
    </svg>
    <svg id="male-clothing">
        <svg id="male-clothing-shirt">
            <path fill="#ebe8eb" d="m132.9 142.2-21.2-20.7-21.2 20.7c.8-12 .9-33.8 21.2-69.5 20.3 35.7 20.4 57.5 21.2 69.5z" marker-start="none" marker-end="none"/>
            <path fill="#F5F0F5" d="M92.4 125.7c-1.1 5-2 10.2-2.7 15.7h0l7.3 2.2c2.5-9.1 7.6-14.4 14.6-22-5.6-4.5-7.5-6.4-10.9-8.4-2.5 2.3-5.7 7.2-8.3 12.5z" stroke="#8a9090" stroke-width="0.25" marker-start="none" marker-end="none"/>
            <path fill="#F5F0F5" d="M111.7 121.7c7.1 7.6 12.2 12.9 14.6 22l7.3-2.2h0c-.7-5.5-1.6-10.7-2.7-15.7-2.5-5.3-5.8-10.2-8.4-12.5-3.3 2-5.2 3.9-10.8 8.4z" stroke="#8a9090" stroke-width="0.25" marker-start="none" marker-end="none"/>
        </svg>
        <svg id="male-clothing-shirt-tie">
            <path fill="#E3342E" d="m108.9 111.3-3.2 3.2 6.1 6.1 6.1-6.1-3.2-3.2h-5.8z" marker-start="none" marker-end="none"/>
            <path fill="#E3342E" d="m106.8 92.5 2.1 17.7h5.6l2.1-17.7c-1.5-2.3-3.2-4.6-4.9-6.9-1.7 2.3-3.4 4.6-4.9 6.9z" marker-start="none" marker-end="none"/>
        </svg>
        <svg id="male-clothing-court">
            <path fill="#221E1F" d="M111.7 85.6c-16.8 31.9-14.2 50.8-15.6 58.2-10.1-3-17.7-5-23.6-7.7-13.6-6.3-18.4-16.6-24.9-58.3 7.7-5.4 16-9.8 24.9-13.2 12.2-4.6 25.4-7.1 39.2-7.1s27 2.5 39.2 7.1c8.9 3.3 17.3 7.8 24.9 13.2-6.5 41.7-11.3 52-24.9 58.3-5.9 2.7-13.4 4.7-23.6 7.7-1.3-7.3 1.2-26.3-15.6-58.2z" marker-start="none" marker-end="none"/>
            <path fill="#3A3235" d="m127.2 144 10.5-8.4c.7-.8.7-2 .1-2.8l-4.6-5.6c-.8-1-.5-2.6.7-3.2l4.3-2c1.1-.5 1.5-2.1.8-3.1l-22-21.6 10.2 46.7zm-20.9-46.7-21.8 21.5c-.7 1-.4 2.6.8 3.1l4.3 2c1.2.6 1.5 2.2.7 3.2l-4.6 5.6c-.6.8-.6 2 .1 2.9l10.5 8.4 10-46.7z" marker-start="none" marker-end="none"/>
        </svg>
    </svg>
</g>
</svg>