<svg id="svg-persona-grain-handler"  xmlns="http://www.w3.org/2000/svg" version="1.1" viewBox="0 0 223.456 305.637" stroke-width="0.5" overflow="visible">
    <defs><style></style></defs>
<g>
  <svg id="face">
    <path fill="#e4b992" d="M84.4 224.9c-23.9-.2-46-8.3-64.2-22.2 4.9-33.3 8.3-48.3 18.2-56.9 5.4-4.8 12.8-7.2 23.9-10.6 2.9-.8 7.7-2.3 10.1-2.8l.1-14.2c-7.8-4.6-13.6-13.4-15.9-24-4.6-.4-6.7-1.9-8.7-5.5-1.6-2.8-2.9-7.5-1.6-11 1.1-3.1 3.7-6.3 7.1-6.3.9 0 1.7.2 2.5.5 2.4-18 14.9-31.8 29.7-31.7s27.1 14 29.3 32.1c.8-.4 1.6-.5 2.5-.5 3.4 0 6 3.3 7.1 6.4 1.2 3.5-.2 8.2-1.8 10.9-2 3.6-4.1 5.1-8.7 5.4-2.5 10.6-8.5 19.3-16.3 23.8l-.1 14.2c2.4.5 7.2 2.1 10.1 2.9 11 3.5 18.4 6 23.7 10.9 9.7 8.8 12.9 23.8 17.4 57.2-18.2 13.7-40.4 21.5-64.4 21.4z" marker-start="none" marker-end="none"/>
    <path fill="#f1c9a5" d="M84.4 224.9c-23.9-.2-46-8.3-64.2-22.2 4.9-33.3 8.3-48.3 18.2-56.9 5.4-4.8 12.8-7.2 23.9-10.6 2.9-.8 7.7-2.3 10.1-2.8l.1-14.2c-7.8-4.6-13.6-13.4-15.9-24-4.6-.4-6.7-1.9-8.7-5.5-1.6-2.8-2.9-7.5-1.6-11 1.1-3.1 3.7-6.3 7.1-6.3.9 0 1.7.2 2.5.5 2.4-18 14.9-31.8 29.7-31.7l-1.2 184.7z" marker-start="none" marker-end="none"/>
  </svg>
  <svg id="male-head-hair">
    <path fill="#10303f" d="M53.5 72c-.7 0-1.3.1-2 .4l-.3-7.6c0-19 15.3-34.4 34.2-34.4s34.2 15.4 34.2 34.4l-.3 7.6c-.6-.2-1.3-.4-2-.4-.9 0-1.7.2-2.5.5C113 60.6 103.9 50.2 98.3 49c-5.7-1.2-7.7 2.3-12.9 2.3s-7.2-3.5-12.9-2.3C67 50.3 57.9 60.7 56 72.6c-.8-.4-1.6-.6-2.5-.6z" marker-start="none" marker-end="none"/>
  </svg>
  <svg id="male-hair-cap">
    <path fill="#366695" d="M120.2 64.8H50.8V44.4c0-9 5.7-16.7 13.7-18.4l16.6-3.6c2.1-.5 4.2-.5 6.3 0l18.9 3.8c8 1.6 13.9 9.4 13.9 18.4v20.2z" marker-start="none" marker-end="none"/>
    <path fill="#273b7a" d="M85.5 53.2c-14.1 0-26.8 3.9-36.1 10.3-.7.5-.4 1.7.4 1.7h71.4c.8 0 1.1-1.2.4-1.7-9.3-6.3-22-10.3-36.1-10.3z" marker-start="none" marker-end="none"/>
  </svg>
  <svg id="male-clothing">
    <path fill="#366695" d="M123.6 217.5c9-3.5 17.5-8.2 25.2-13.8-6.3-44.5-11-55.6-24.7-62.4-5.9-2.9-13.5-5.1-23.6-8.4-1.5 7.9-8 13.8-15.8 13.7-7.8-.1-14.3-6.1-15.6-13.9-10.2 3.1-17.8 5.2-23.8 8-13.7 6.6-18.6 17.6-25.5 62 7.7 5.8 16 10.6 25 14.2 12.2 5 25.5 7.7 39.4 7.8 13.7.2 27.1-2.4 39.4-7.2z" marker-start="none" marker-end="none"/>
    <path fill="#263a7a" d="M99.3 132.1c-2.6 9.7-6 8.6-14.7 14.6 5.4 5.7 8 11.4 11.6 13.1 5.3-4.8 12.6-16.6 11.9-24.7l-8.8-3zm-29.3-.2c2.4 9.7 5.8 8.7 14.5 14.8-5.4 5.6-8.2 11.3-11.8 12.9-5.3-4.9-12.4-16.8-11.5-24.8l8.8-2.9z" marker-start="none" marker-end="none"/>
    <path fill="#263a7a" d="m126 142.4-9.8-4.6-.1 44.6c0 1.7-.7 3.1-1.8 3.5-8.3 3-18.6 4.8-29.9 4.8s-21.7-1.9-30-4.9c-1.1-.4-1.8-1.8-1.8-3.5l.1-44.6-9.8 4.6-.2 72.4 83.1.2.2-72.5z" marker-start="none" marker-end="none"/>
  </svg>
</g>
</svg>


