<svg id="svg-persona-grain-blender"  xmlns="http://www.w3.org/2000/svg" version="1.1" viewBox="0 0 223.456 305.637" stroke-width="0.5" overflow="visible">
  <defs><style></style></defs>
<g transform="matrix(1,0,0,-1,-25.901441,281.67817)">
  <svg id="female-hair-single-ponytail">
    <path fill="#30302E" d="m129.9 187.4-38.4 1.8c-32.4-28.2-12.6-46.4-6.2-55.3C98.1 116 84 109.8 84 109.8l.7.3s24.9 4.2 15.6 23.6c-4.7 9.6-7.5 30.3 29.6 53.7z" marker-start="none" marker-end="none"/>
  </svg>
  <svg id="female-clothing-shirt-collar">
    <path fill="#1D2D33" d="M112.2 148.8c-5.8 0-11.4-.4-16.6-1.3l16.7-42.7 16.7 42.6c-5.3.9-10.9 1.4-16.8 1.4z" marker-start="none" marker-end="none"/>
  </svg>
  <svg id="face">
    <path fill="#F1C9A5" d="M111.7 57.6c23.9 0 46.1 7.5 64.3 20.4-4.7 31.4-8 45.5-17.8 53.7-5.4 4.6-12.8 6.9-23.8 10.1-2.9.8-7.7 2.2-10.1 2.7v13.4c7.8 4.3 13.7 12.5 16.1 22.5 4.6.3 6.7 1.7 8.7 5.1 1.6 2.6 2.9 7 1.7 10.3-1.1 2.9-3.7 6-7.1 6-.9 0-1.7-.2-2.5-.5-2.3 17-14.7 30-29.5 30s-27.2-13-29.5-30c-.8.4-1.6.5-2.5.5-3.4 0-6-3.1-7.1-6-1.2-3.3.1-7.7 1.7-10.3 2-3.4 4.1-4.8 8.7-5.1 2.4-10 8.4-18.2 16.1-22.5v-13.4c-2.4-.5-7.2-1.9-10.1-2.7-11-3.2-18.4-5.5-23.8-10.1-9.8-8.2-13.1-22.3-17.8-53.7 18.2-12.9 40.4-20.4 64.3-20.4z" marker-start="none" marker-end="none"/>
    <path fill="#E4B992" d="M111.7 57.6c23.9 0 46.1 7.5 64.3 20.4-4.7 31.4-8 45.5-17.8 53.7-5.4 4.6-12.8 6.9-23.8 10.1-2.9.8-7.7 2.2-10.1 2.7v13.4c7.8 4.3 13.7 12.5 16.1 22.5 4.6.3 6.7 1.7 8.7 5.1 1.6 2.6 2.9 7 1.7 10.3-1.1 2.9-3.7 6-7.1 6-.9 0-1.7-.2-2.5-.5-2.3 17-14.7 30-29.5 30V57.6z" marker-start="none" marker-end="none"/>
  </svg>
  <svg id="female-hair-head">
    <path fill="#30302E" d="M111.6 238.2c-20.6 0-29.8-8.2-29.8-38.3l3.4 2.6c16.5 0 30.6 8.8 40.8 17.1 4.3-10.8 15.4-19.6 15.4-19.6 0 30-9.2 38.2-29.8 38.2z" marker-start="none" marker-end="none"/>
  </svg>
  <svg id="female-hard-hat">
    <path fill="#E5AA17" d="M144.8 220.3c-1.1 14-12.6 25.7-26.7 28.4 0 .6-.3 1.2-.7 1.7-.5.5-1.1.7-1.8.7h-7.7c-.7 0-1.3-.3-1.8-.7-.5-.5-.7-1.1-.7-1.7-13.9-2.8-24.2-14.4-25.3-28.4h-1.5c-.9 0-1.6-.7-1.6-1.5v-9c0-.8.7-1.5 1.6-1.5h8.8c3.2-5.3 9.1-8.6 15.4-8.6h19c6.3 0 12.2 3.3 15.4 8.6h7.4c.9 0 1.6.7 1.6 1.5v9c.2.9-.5 1.5-1.4 1.5zm-45.3.9c-1 0-1.8.8-1.8 1.7v15.7c0 .9.8 1.7 1.8 1.7.5 0 .9-.2 1.3-.5.3-.3.5-.8.5-1.2v-15.7c0-.9-.8-1.7-1.8-1.7zm13.3 0H111c-1 0-1.8.8-1.8 1.7v21c0 .9.7 1.7 1.7 1.7h1.9c1 0 1.7-.8 1.7-1.7v-21c0-.9-.7-1.7-1.7-1.7zm11.5 0c-1 0-1.8.8-1.8 1.7v15.7c0 .9.8 1.7 1.7 1.7.5 0 .9-.2 1.3-.5.3-.3.5-.8.5-1.2v-15.7c0-.9-.8-1.7-1.7-1.7z" marker-start="none" marker-end="none"/>
  </svg>
  <svg id="female-clothing-shirt">
    <path fill="#334D5C" d="M47.4 77.9c6.8 52.5 12.2 56.1 47.1 65.5 3.2-12.1 9.1-33.6 17.2-38.6 8.1 4.9 14 26.5 17.2 38.6 34.9-9.3 40-13.4 47.1-65.5-18.2-12.8-40.4-20.4-64.3-20.4-23.9.1-46.1 7.6-64.3 20.4z" marker-start="none" marker-end="none"/>
    <path fill="#263A44" d="M115.1 57.8v58.9h-7.5V57.8c1.2-.1 2.5-.1 3.7-.1 1.3.1 2.6.1 3.8.1z" marker-start="none" marker-end="none"/>
    <path fill="#263A44" d="m81.1 128.4 15.3-.6-5.5-5.6 24.1-19c.1-.2-19.2 44.4-19.2 44.4l-17.5-6.9 2.8-12.3z" marker-start="none" marker-end="none"/>
    <path fill="#263A44" d="m145.8 140.9-17.5 6.9s-19.4-44.6-19.2-44.4l24.1 19-5.5 5.6 15.3.6 2.8 12.3z" marker-start="none" marker-end="none"/>
     <svg id="female-clothing-shirt-pocket">
      <ellipse fill="#263A44" cx="142.2" cy="86" rx="2.1" ry="2.3"/>
      <path fill="#263A44" d="M129.1 91V58.9c.4.1.9.1 1.3.2v23.1l11.9-2.4 11.6 2.4V66.6c.4.2.9.4 1.3.6V91h-26.1zm24.9-7.3-11.6-2.4-11.9 2.4v5.9H154v-5.9zM68 91V67.3c.4-.2.9-.4 1.3-.6v15.6l11.9-2.4 11.6 2.4V59c.4-.1.9-.1 1.3-.2V91H68zm24.8-7.3-11.6-2.4-11.9 2.4v5.9h23.5v-5.9z" marker-start="none" marker-end="none"/>
      <ellipse fill="#263A44" cx="81" cy="86" rx="2.1" ry="2.3"/>
    </svg>
  </svg>
</g>
</svg>
