<svg  id="svg-persona-information-manager" xmlns="http://www.w3.org/2000/svg" version="1.1" viewBox="0 0 223.5 305.6" stroke-width="0.5" overflow="visible">
<defs><style></style></defs>
  <g transform="matrix(1 0 0 -1 -25.901 281.678)">
    <svg id="face">
        <path fill="#f1c9a5" d="M111.7 57.6c23.9 0 46.1 7.5 64.3 20.4-4.7 31.4-8 45.5-17.8 53.7-5.4 4.6-12.8 6.9-23.8 10.1-2.9.8-7.7 2.2-10.1 2.7v13.4c7.8 4.3 13.7 12.5 16.1 22.5 4.6.3 6.7 1.7 8.7 5.1 1.6 2.6 2.9 7 1.7 10.3-1.1 2.9-3.7 6-7.1 6-.9 0-1.7-.2-2.5-.5-2.3 17-14.7 30-29.5 30s-27.2-13-29.5-30c-.8.4-1.6.5-2.5.5-3.4 0-6-3.1-7.1-6-1.2-3.3.1-7.7 1.7-10.3 2-3.4 4.1-4.8 8.7-5.1 2.4-10 8.4-18.2 16.1-22.5v-13.4c-2.4-.5-7.2-1.9-10.1-2.7-11-3.2-18.4-5.5-23.8-10.1-9.8-8.2-13.1-22.3-17.8-53.7 18.2-12.9 40.4-20.4 64.3-20.4z" marker-start="none" marker-end="none"/>
        <path fill="#e4b992" d="M111.7 57.6c23.9 0 46.1 7.5 64.3 20.4-4.7 31.4-8 45.5-17.8 53.7-5.4 4.6-12.8 6.9-23.8 10.1-2.9.8-7.7 2.2-10.1 2.7v13.4c7.8 4.3 13.7 12.5 16.1 22.5 4.6.3 6.7 1.7 8.7 5.1 1.6 2.6 2.9 7 1.7 10.3-1.1 2.9-3.7 6-7.1 6-.9 0-1.7-.2-2.5-.5-2.3 17-14.7 30-29.5 30V57.6z" marker-start="none" marker-end="none"/>
    </svg> 
    <svg id="male-hair">
       <path fill="#494948" d="M95.1 214s12.9-14.1 39.4-9.1c0 0 2.6.7 6.9-3.8 0 0 7.3 12 3 31.6 0 0-13.4 4.9-19.6 9.4-6.3 4.5-22.9 9.2-26.7-4.1 0 0-12.1 1.7-15.4-12.6-3.3-14.3-.3-24.3-.3-24.3s6.2 17.3 12.7 12.9z" marker-start="none" marker-end="none"/>
    </svg>   
    <svg id="male-clothing">
        <svg id="male-clothing-shirt">
        <path fill="#B7CECC" d="m133 142.5-21.2-20.7-21.2 20.7c.8-12 .9-33.8 21.2-69.5 20.3 35.7 20.4 57.5 21.2 69.5z" marker-start="none" marker-end="none"/>
        <path fill="#D9EDEC" d="M92.5 126c-1.1 5-2 10.2-2.7 15.7l7.3 2.2c2.5-9.1 7.6-14.4 14.6-22-5.6-4.5-7.5-6.4-10.9-8.4-2.5 2.3-5.7 7.2-8.3 12.5zm19.3-4c7.1 7.6 12.2 12.9 14.6 22l7.3-2.2c-.7-5.5-1.6-10.7-2.7-15.7-2.5-5.3-5.8-10.2-8.4-12.5-3.3 2-5.2 3.9-10.8 8.4z" stroke="#B7CECC" stroke-width="0.25" marker-start="none" marker-end="none"/>
        </svg>
        <svg id="male-clothing-shirt-tie">
        <path fill="#386895" d="m108.9 111.3-3.2 3.2 6.1 6.1 6.1-6.1-3.2-3.2h-5.8z" marker-start="none" marker-end="none"/>
        <path fill="#386895" d="m106.8 92.5 2.1 17.7h5.6l2.1-17.7c-1.5-2.3-3.2-4.6-4.9-6.9-1.7 2.3-3.4 4.6-4.9 6.9z" marker-start="none" marker-end="none"/>
        </svg>
        <svg id="male-clothing-court">
            <path fill="#273B7A" d="M111.7 85.6c-16.8 31.9-14.2 50.8-15.6 58.2-10.1-3-17.7-5-23.6-7.7-13.6-6.3-19.4-16.1-24.9-58.3 7.7-5.4 16-9.8 24.9-13.2 12.2-4.6 25.4-7.1 39.2-7.1s27 2.5 39.2 7.1c8.9 3.3 17.3 7.8 24.9 13.2-5.2 42-11.3 52-24.9 58.3-5.9 2.7-13.4 4.7-23.6 7.7-1.3-7.3 1.2-26.3-15.6-58.2z" marker-start="none" marker-end="none"/>
        </svg>
    </svg>
  </g>
</svg>