<svg id="svg-persona-information-manager" xmlns="http://www.w3.org/2000/svg" version="1.1" viewBox="0 0 223.5 305.6" stroke-width="0.5" overflow="visible">
<defs><style></style></defs>
  <g transform="matrix(1 0 0 -1 -25.901 281.678)">
  <svg id="female-hair-head-full">
    <path fill="#402817" d="M157.6 130.7c12.1 10.4 5.1 52.1 5.1 61.6 0 35.2-19.6 61.1-50.7 61.1s-50.7-25.9-50.7-61.1c0-9.5-7-51.2 5.1-61.6 16.8-14.5 74.3-14.5 91.2 0z" marker-start="none" marker-end="none"/>
    <path fill="#402817" d="M162.6 192.4c0 35.2-19.6 61.1-50.7 61.1V120c18.6 0 37.2 3.6 45.6 10.9 12.1 10.4 5.1 52.1 5.1 61.5z" marker-start="none" marker-end="none"/>
  </svg>
  <svg id="face">
	  <path fill="#f1c9a5" d="M111.7 57.6c23.9 0 46.1 7.5 64.3 20.4-4.7 31.4-8 45.5-17.8 53.7-5.4 4.6-12.8 6.9-23.8 10.1-2.9.8-7.7 2.2-10.1 2.7v13.4c7.8 4.3 13.7 12.5 16.1 22.5 4.6.3 6.7 1.7 8.7 5.1 1.6 2.6 2.9 7 1.7 10.3-1.1 2.9-3.7 6-7.1 6-.9 0-1.7-.2-2.5-.5-2.3 17-14.7 30-29.5 30s-27.2-13-29.5-30c-.8.4-1.6.5-2.5.5-3.4 0-6-3.1-7.1-6-1.2-3.3.1-7.7 1.7-10.3 2-3.4 4.1-4.8 8.7-5.1 2.4-10 8.4-18.2 16.1-22.5v-13.4c-2.4-.5-7.2-1.9-10.1-2.7-11-3.2-18.4-5.5-23.8-10.1-9.8-8.2-13.1-22.3-17.8-53.7 18.2-12.9 40.4-20.4 64.3-20.4z" marker-start="none" marker-end="none"/>
    <path fill="#e4b992" d="M111.7 57.6c23.9 0 46.1 7.5 64.3 20.4-4.7 31.4-8 45.5-17.8 53.7-5.4 4.6-12.8 6.9-23.8 10.1-2.9.8-7.7 2.2-10.1 2.7v13.4c7.8 4.3 13.7 12.5 16.1 22.5 4.6.3 6.7 1.7 8.7 5.1 1.6 2.6 2.9 7 1.7 10.3-1.1 2.9-3.7 6-7.1 6-.9 0-1.7-.2-2.5-.5-2.3 17-14.7 30-29.5 30V57.6z" marker-start="none" marker-end="none"/>
  </svg>
  <svg id="female-head-front-short-hair">
    <path fill="#402817" d="M137.9 182.8c-.1 28.1-35.2 38-35.2 38s-6.9-10.4-18.1-15.3c0 0-1.9-.3-3.2-3.5-1.3-3.2-4.1 27 17.3 36.4s37.7.8 45.3-15.4c12-25.5-6.1-40.2-6.1-40.2z" marker-start="none" marker-end="none"/>
  </svg> 
  <svg id="female-hair-headphone">
	  <path fill="#d4cfc5" d="M147.1 212.6c6.6 0 11.9-5.2 12-11.6v-9.5c0-6.3-5.3-11.5-11.8-11.5H140l-.1 32.6h1.3c-3.6 13-15.7 22.6-30.1 22.8-14.5-.3-26.6-10-29.9-23h1.3l.1-28.5c3.3-2.8 15-12.9 18.8-14.4 1.4 1.2 3.7 1.9 6.1 1.9 4.3 0 7.7-2.2 7.7-5s-3.4-5-7.7-5c-3.3 0-6.1 1.3-7.2 3.2-5.9 2.1-16.4 9.7-22.9 15h-1.2 1.2l-.3.3h-1.8c-6.5 0-11.8 5.1-11.8 11.5v9.5c0 6.3 5.3 11.5 11.8 11.5h.7c.2 1 .5 2 .8 3-.1 0-.1.1-.1.1-.3.6-.3 1.3-.1 1.9 5.3 13.7 19 23 34.1 23h.8c15.1.1 28.9-9.1 34.3-22.8.2-.6.2-1.3-.1-1.9-.1 0-.1-.1-.1-.1.3-1 .6-2 .8-3h.7z" marker-start="none" marker-end="none"/>
    <path fill="#d4cfc5" d="M159 201v-9.5c0-6.3-5.3-11.5-11.8-11.5h-7.3l-.1 32.6h1.3c-3.6 13-15.7 22.6-30.1 22.8h-.1v5h.5c15.1.1 28.9-9.1 34.3-22.8.2-.6.2-1.3-.1-1.9-.1 0-.1-.1-.1-.1.3-1 .6-2 .8-3h.7c6.7 0 12-5.2 12-11.6z" marker-start="none" marker-end="none"/>
  </svg>
  <svg id="female-clothing">
    <svg id="female-clothing-blouse">
	  <path fill="#d9edec" d="m146.7 137.7 5.9-2.5c9.5-3.8 16.8-15.6 20.2-37.8l3.4-19.7C157.4 64.3 135.3 57 111.4 57s-45.8 6.5-64.3 19.8l3.6 23.3c3.7 15 6.8 28.1 20.2 35.2l6.1 2.3 12.1 3.7c.8.3 0 0 3.1 1l19.1-23.4 19.2 23.8c3.1-.9.1 0 3.2-1l13-4z" marker-start="none" marker-end="none"/>
    <path fill="#b7cecc" d="m111.6 72.9 20.3 39.4-20.4 7.8-20.4 -7.8 20.5-39.4z" marker-start="none" marker-end="none"/>
	  <path fill="#8ea3a0" d="m91 112.2 20.4 7.8.3-.1.1-46.7-.3-.5L91 112.2z" marker-start="none" marker-end="none"/>
	</svg>
	<svg id="female-clothing-jacket">
    <path fill="#121149" d="m106.9 57.4-11 87c-36.1-10-41.2-11.7-49.3-66.7 17.2-12.1 37.9-19.4 60.3-20.3zm69.7 20.5c-8.4 55.1-13.4 56.7-49.5 66.5l-10.8-87c22.4.9 43.1 8.4 60.3 20.5z" marker-start="none" marker-end="none"/>
    </svg>
	<svg id="female-clothing-jacket-button">
	  <ellipse fill="#d9edec" cx="111.7" cy="110.1" rx="2" ry="2.1"/>
    <ellipse fill="#d9edec" cx="111.7" cy="100.1" rx="2" ry="2.1"/>
	</svg>
  </svg>
  </g>
</svg>
