<svg id="svg-persona-miller"  xmlns="http://www.w3.org/2000/svg" version="1.1" viewBox="0 0 223.456 305.637" stroke-width="0.5" overflow="visible">
    <defs><style></style></defs>
<g>
  <svg id="face">
    <path fill="#e4b992" d="M84.4 224.9c-23.9-.2-46-8.3-64.2-22.2 4.9-33.3 8.3-48.3 18.2-56.9 5.4-4.8 12.8-7.2 23.9-10.6 2.9-.8 7.7-2.3 10.1-2.8l.1-14.2c-7.8-4.6-13.6-13.4-15.9-24-4.6-.4-6.7-1.9-8.7-5.5-1.6-2.8-2.9-7.5-1.6-11 1.1-3.1 3.7-6.3 7.1-6.3.9 0 1.7.2 2.5.5 2.4-18 14.9-31.8 29.7-31.7s27.1 14 29.3 32.1c.8-.4 1.6-.5 2.5-.5 3.4 0 6 3.3 7.1 6.4 1.2 3.5-.2 8.2-1.8 10.9-2 3.6-4.1 5.1-8.7 5.4-2.5 10.6-8.5 19.3-16.3 23.8l-.1 14.2c2.4.5 7.2 2.1 10.1 2.9 11 3.5 18.4 6 23.7 10.9 9.7 8.8 12.9 23.8 17.4 57.2-18.2 13.7-40.4 21.5-64.4 21.4z" marker-start="none" marker-end="none"/>
    <path fill="#f1c9a5" d="M84.4 224.9c-23.9-.2-46-8.3-64.2-22.2 4.9-33.3 8.3-48.3 18.2-56.9 5.4-4.8 12.8-7.2 23.9-10.6 2.9-.8 7.7-2.3 10.1-2.8l.1-14.2c-7.8-4.6-13.6-13.4-15.9-24-4.6-.4-6.7-1.9-8.7-5.5-1.6-2.8-2.9-7.5-1.6-11 1.1-3.1 3.7-6.3 7.1-6.3.9 0 1.7.2 2.5.5 2.4-18 14.9-31.8 29.7-31.7l-1.2 184.7z" marker-start="none" marker-end="none"/>
  </svg>
  <svg id="male-hair">
      <svg id="male-head-hair">
          <path fill="#543d38" d="M53.5 72c-.7 0-1.3.1-2 .4l-.3-7.6c0-19 15.3-34.4 34.2-34.4s34.2 15.4 34.2 34.4l-.3 7.6c-.6-.2-1.3-.4-2-.4-.9 0-1.7.2-2.5.5C113 60.6 103.9 50.2 98.3 49c-5.7-1.2-7.7 2.3-12.9 2.3s-7.2-3.5-12.9-2.3C67 50.3 57.9 60.7 56 72.6c-.8-.4-1.6-.6-2.5-.6z" marker-start="none" marker-end="none"/>
      </svg>
      <svg id="male-hair-mustache">
          <path fill="#543d38" d="M84.7 101.1c0-3.8 3-4.7 5.1-3.8 3.8 1.6 7.9 6.3 11.4 3.3 0 0-1.1 6.1-3.2 6.1-4.1.1-13.3.8-13.3-5.6z" marker-start="none" marker-end="none"/>
          <path fill="#543d38" d="M85.6 101.1c0-3.8-3.1-4.6-5.2-3.7-3.7 1.7-7.8 6.5-11.3 3.6 0 0 1.3 6 3.3 6 4.2 0 13.3.5 13.2-5.9z" marker-start="none" marker-end="none"/>
      </svg>
  </svg>
  <svg id="male-hair-hat">
    <path fill="#ffbe1e" d="M114.7 33.8v-4.1c0-1.4-1.1-2.5-2.4-2.5h-2.4c-.6 0-1.2.3-1.6.7-4.8-3.2-10.8-5-17.6-5.5v-.2c0-1.4-1.1-2.5-2.4-2.5h-4.8c-1.3 0-2.4 1.1-2.4 2.5v.2c-6.8.5-12.8 2.3-17.6 5.5-.4-.4-1-.7-1.6-.7h-2.4c-1.3 0-2.4 1.1-2.4 2.5v4.1C52.6 39.9 50 48.4 50 60.1v5.1h71.9v-5.1c0-11.7-2.6-20.3-7.2-26.3z" marker-start="none" marker-end="none"/>
    <path fill="#fc9b28" d="M86 55c-15.3 0-38.3 4.5-38.3 10.1h76.6c0-5.5-23-10.1-38.3-10.1z" marker-start="none" marker-end="none"/>
  </svg>
  <svg id="male-clothing">
    <path fill="#ffbe1e" d="M123.6 217.5c9-3.5 17.5-8.2 25.2-13.8-6.3-44.5-11-55.6-24.7-62.4-5.9-2.9-13.5-5.1-23.6-8.4-1.5 7.9-8 13.8-15.8 13.7s-14.3-6.1-15.6-13.9c-10.2 3.1-17.8 5.2-23.8 8-13.7 6.6-18.6 17.6-25.5 62 7.7 5.8 16 10.6 25 14.2 12.2 5 25.5 7.7 39.4 7.8 13.7.2 27.1-2.4 39.4-7.2z" marker-start="none" marker-end="none"/>
    <path fill="#4f6e8d" d="m126 142.4-9.8-4.6-.1 44.6c0 1.7-.7 3.1-1.8 3.5-8.3 3-18.6 4.8-29.9 4.8s-21.7-1.9-30-4.9c-1.1-.4-1.8-1.8-1.8-3.5l.1-44.6-9.8 4.6-.2 72.4 83.1.2.2-72.5z" marker-start="none" marker-end="none"/>
  </svg>
</g>
</svg>
