<svg id="svg-persona-nutritionist" xmlns="http://www.w3.org/2000/svg" version="1.1" viewBox="0 0 223.5 305.6" stroke-width="0.5" overflow="visible">
<defs><style></style></defs>
<g transform="matrix(1 0 0 -1 -25.901 281.678)">
    <svg id="face">
        <path fill="#f1c9a5" d="M111.7 57.6c23.9 0 46.1 7.5 64.3 20.4-4.7 31.4-8 45.5-17.8 53.7-5.4 4.6-12.8 6.9-23.8 10.1-2.9.8-7.7 2.2-10.1 2.7v13.4c7.8 4.3 13.7 12.5 16.1 22.5 4.6.3 6.7 1.7 8.7 5.1 1.6 2.6 2.9 7 1.7 10.3-1.1 2.9-3.7 6-7.1 6-.9 0-1.7-.2-2.5-.5-2.3 17-14.7 30-29.5 30s-27.2-13-29.5-30c-.8.4-1.6.5-2.5.5-3.4 0-6-3.1-7.1-6-1.2-3.3.1-7.7 1.7-10.3 2-3.4 4.1-4.8 8.7-5.1 2.4-10 8.4-18.2 16.1-22.5v-13.4c-2.4-.5-7.2-1.9-10.1-2.7-11-3.2-18.4-5.5-23.8-10.1-9.8-8.2-13.1-22.3-17.8-53.7 18.2-12.9 40.4-20.4 64.3-20.4z" marker-start="none" marker-end="none"/>
        <path fill="#e4b992" d="M111.7 57.6c23.9 0 46.1 7.5 64.3 20.4-4.7 31.4-8 45.5-17.8 53.7-5.4 4.6-12.8 6.9-23.8 10.1-2.9.8-7.7 2.2-10.1 2.7v13.4c7.8 4.3 13.7 12.5 16.1 22.5 4.6.3 6.7 1.7 8.7 5.1 1.6 2.6 2.9 7 1.7 10.3-1.1 2.9-3.7 6-7.1 6-.9 0-1.7-.2-2.5-.5-2.3 17-14.7 30-29.5 30V57.6z" marker-start="none" marker-end="none"/>
    </svg>
    <svg id="male-hair-head">
        <path fill="#230608" d="M74.1 211.3c.4 3.6 1.5 9 2.2 12 2.3 9.7 7.6 16.5 17.6 16.6 4 2.8 10.8 6.6 17.9 6.7 21-.1 32-8.7 35.5-23.2.7-3 1.8-8.4 2.2-12-.2.1-7.9-11.7-8-15.6.1.1-1.8 0-2.6.2-.4 3-.2 9.6-.4 15.1-19.2-1.7-31.7 2.6-40.2 12.9-3.9-.2-7.7-3.7-9.8-7.1-3.8-6-3.1-15.9-3.7-20.9-.7-.2-2.7-.1-2.6-.2-.2 3.8-7.9 15.6-8.1 15.5z" marker-start="none" marker-end="none"/>
    </svg>
    <svg id="male-accessory-glasses-frames">
    <path fill="#241107" d="M 86.999,194.761 L 86.295,195.331 L 84.695,195.961 L 82.205,199.748 C 90.316,201.384 95.96,202.539 100.977,201.423 C 104.617,200.614 108.684,198.328 111.728,198.303 C 114.772,198.328 118.839,200.614 122.479,201.423 C 127.496,202.539 133.14,201.384 141.166,199.748 L 138.761,195.961 L 137.161,195.331 L 136.457,194.761 C 136.346,185.964 130.899,181.367 124.973,181.175 C 119.19,180.987 113.349,185.114 112.928,193.677 C 112.928,193.901 112.698,194.011 112.521,194.084 C 112.033,194.286 111.423,194.286 110.935,194.084 C 110.758,194.011 110.528,193.901 110.528,193.677 C 110.107,185.114 104.266,180.987 98.483,181.175 C 92.557,181.367 87.11,185.964 86.999,194.761 Z M 108.71,191.814 C 109.172,193.743 108.215,195.865 106.289,197.251 C 104.257,198.713 101.505,199.746 98.885,199.989 C 96.461,200.213 93.9,200.148 91.686,198.759 C 89.854,197.61 88.808,195.725 88.941,193.786 C 89.309,188.431 93.779,183.827 98.435,183.489 C 102.831,183.17 107.682,187.528 108.71,191.814 Z M 125.021,183.489 C 129.677,183.827 134.147,188.431 134.515,193.786 C 134.648,195.725 133.602,197.61 131.77,198.759 C 129.556,200.148 126.995,200.213 124.571,199.989 C 121.951,199.746 119.199,198.713 117.167,197.251 C 115.241,195.865 114.284,193.743 114.746,191.814 C 115.774,187.528 120.625,183.17 125.021,183.489 Z" stroke-linejoin="miter" stroke="none" marker-start="none" marker-end="none"/>
    </svg>
    <svg id="male-clothing">
    <svg id="male-clothing-tshirt">
        <path fill="#44757F" d="M72.5 64.7c-8.9 3.3-17.3 7.8-24.9 13.2 6.5 41.7 11.3 52 24.9 58.3 5.9 2.7 13.4 4.7 23.6 7.7 1.4-7.4 7.8-12.9 15.6-12.9s14.2 5.6 15.6 12.9c10.1-3 17.7-5 23.6-7.7 13.6-6.3 18.4-16.6 24.9-58.3-7.7-5.4-16-9.8-24.9-13.2-12.2-4.6-25.4-7.1-39.2-7.1-13.8 0-27 2.5-39.2 7.1z" marker-start="none" marker-end="none"/>
    </svg>
    <svg id="male-clothing-jacket">
        <path fill="#ffffff" d="M111.7 85.6c-16.8 31.9-14.2 50.8-15.6 58.2-10.1-3-17.7-5-23.6-7.7-13.6-6.3-19.4-16.4-25.1-58.2 7.7-5.4 16.2-9.9 25.1-13.3 12.2-4.6 25.4-7.1 39.2-7.1s27 2.5 39.2 7.1c8.9 3.3 17.4 7.9 25.1 13.3-5.7 41.9-11.5 51.9-25.1 58.2-5.9 2.7-13.4 4.7-23.6 7.7-1.3-7.3 1.2-26.3-15.6-58.2z" stroke="#afafaf" stroke-width="0.25" marker-start="none" marker-end="none"/>
        <path fill="#e0e2e2" d="m127.2 144 10.5-8.4c.7-.8.7-2 .1-2.8l-4.6-5.6c-.8-1-.5-2.6.7-3.2l4.3-2c1.1-.5 1.5-2.1.8-3.1l-22-21.6 10.2 46.7zm-20.9-46.7-21.8 21.5c-.7 1-.4 2.6.8 3.1l4.3 2c1.2.6 1.5 2.2.7 3.2l-4.6 5.6c-.6.8-.6 2 .1 2.9l10.5 8.4 10-46.7z" marker-start="none" marker-end="none"/> 
    </svg>
    </svg>
    <svg id="male-stethoscope">
        <path fill="#d0d7dc" d="M82.2 112.7c-1.2 0-2.1 1-2.1 2.3v25.5c0 1.3 1 2.3 2.1 2.3s2.1-1 2.1-2.3v-25.6c0-1.2-1-2.2-2.1-2.2zm58.6 6.4c-1.2 0-2.1 1-2.1 2.3v18.7c0 1.3 1 2.3 2.1 2.3s2.1-1 2.1-2.3v-18.7c0-1.3-.9-2.3-2.1-2.3z" marker-start="none" marker-end="none"/>
        <path fill="#d0d7dc" d="M147.4 87.1h-.6c-1.2 0-2.1 1-2.1 2.3s1 2.3 2.1 2.3h.6c.8 0 1.5.7 1.5 1.5v16.7c0 4.6-3.6 8.4-8 8.4s-8-3.8-8-8.4V93.2c0-.8.7-1.5 1.5-1.5 1.2 0 2.1-1 2.1-2.3s-1-2.3-2.1-2.3c-3.2 0-5.8 2.6-5.8 6v16.7c0 7.1 5.5 12.9 12.4 12.9s12.4-5.7 12.4-12.9V93.1c-.2-3.2-2.8-6-6-6z" marker-start="none" marker-end="none"/>
        <ellipse fill="#323335" cx="82.2" cy="108.8" rx="9.8" ry="10.2"/>
        <ellipse fill="#b2b9bf" cx="82.2" cy="109.2" rx="5.5" ry="5.7"/>
        <circle fill="#323335" cx="135.8" cy="89.3" r="1.8"/>
        <circle fill="#323335" cx="145.1" cy="89.3" r="1.8"/>
    </svg> 
  </g>
</svg>