<svg id="svg-persona-nutritionist" xmlns="http://www.w3.org/2000/svg" version="1.1" viewBox="0 0 223.5 305.6" stroke-width="0.5" overflow="visible">
<defs><style></style></defs>
<g transform="matrix(1 0 0 -1 -25.901 281.678)">
<svg id="female-hair-head-bun">
    <ellipse fill="#5a3017" cx="136.1" cy="167" rx="16.5" ry="18"/>
</svg>
<svg id="face">
    <path fill="#f1c9a5" d="M111.7 57.6c23.9 0 46.1 7.5 64.3 20.4-4.7 31.4-8 45.5-17.8 53.7-5.4 4.6-12.8 6.9-23.8 10.1-2.9.8-7.7 2.2-10.1 2.7v13.4c7.8 4.3 13.7 12.5 16.1 22.5 4.6.3 6.7 1.7 8.7 5.1 1.6 2.6 2.9 7 1.7 10.3-1.1 2.9-3.7 6-7.1 6-.9 0-1.7-.2-2.5-.5-2.3 17-14.7 30-29.5 30s-27.2-13-29.5-30c-.8.4-1.6.5-2.5.5-3.4 0-6-3.1-7.1-6-1.2-3.3.1-7.7 1.7-10.3 2-3.4 4.1-4.8 8.7-5.1 2.4-10 8.4-18.2 16.1-22.5v-13.4c-2.4-.5-7.2-1.9-10.1-2.7-11-3.2-18.4-5.5-23.8-10.1-9.8-8.2-13.1-22.3-17.8-53.7 18.2-12.9 40.4-20.4 64.3-20.4z" marker-start="none" marker-end="none"/>
    <path fill="#e4b992" d="M111.7 57.6c23.9 0 46.1 7.5 64.3 20.4-4.7 31.4-8 45.5-17.8 53.7-5.4 4.6-12.8 6.9-23.8 10.1-2.9.8-7.7 2.2-10.1 2.7v13.4c7.8 4.3 13.7 12.5 16.1 22.5 4.6.3 6.7 1.7 8.7 5.1 1.6 2.6 2.9 7 1.7 10.3-1.1 2.9-3.7 6-7.1 6-.9 0-1.7-.2-2.5-.5-2.3 17-14.7 30-29.5 30V57.6z" marker-start="none" marker-end="none"/>
</svg>
<svg id="female-hair-head">
    <path fill="#5a3017" d="M151.8 188.7s-15.4-7.5-26.2 13.5c-7.2-1-28.8 3-32.9 13-3.6-15-13.8-17.9-6.2-32.9 5.6-11.1 4.6-30.4 4.6-30.4s-23.4 20.7-20 48.9c3.8 31.8 11.7 40.4 22.5 37.4 8.7 11 35.5 9.5 46.3-4 10.8-13.5 7.8-19.4 11.8-25 7.9-10.6.1-20.5.1-20.5z" marker-start="none" marker-end="none"/>
</svg>
<svg id="female-clothing">
<svg id="female-clothing-blouse">
    <path fill="#ff6262" d="M 92.034,59.312 L 92.034,59.348 L 92.034,124.771 C 104.567,119.226 117.667,118.958 131.421,124.771 L 131.421,59.348 L 131.421,59.312 C 125.028,58.174 118.447,57.58 111.728,57.58 C 105.008,57.58 98.427,58.174 92.034,59.312 Z"  stroke-linejoin="miter" marker-start="none" marker-end="none"/>
</svg>
<svg id="female-clothing-jacket">
    <path fill="#ffffff" d="M 116.367,57.697 L 127.103,143.888 C 162.82,134.09 167.817,132.44 175.987,77.915 C 158.989,65.937 138.503,58.579 116.364,57.674 L 116.367,57.697 Z" stroke="#000000" stroke-linejoin="round" stroke-width="0.1" marker-start="none" marker-end="none"/>
    <path fill="#ffffff" d="M 47.468,77.915 C 55.638,132.44 60.635,134.09 96.353,143.888 L 107.088,57.697 L 107.091,57.674 C 84.952,58.579 64.466,65.937 47.468,77.915 Z" stroke="#000000" stroke-linejoin="round" stroke-width="0.1" marker-start="none" marker-end="none"/>
</svg>
</svg>
<svg id="female-stethoscope">
    <path fill="#d0d7dc" d="M85.8 118.1c-1.1 0-1.9.9-1.9 2v22.2c0 1.1.9 2 1.9 2s1.9-.9 1.9-2V120c0-1.1-.9-1.9-1.9-1.9zm52 5.5c-1.1 0-1.9.9-1.9 2v16.3c0 1.1.9 2 1.9 2s1.9-.9 1.9-2v-16.3c0-1.1-.8-2-1.9-2z" marker-start="none" marker-end="none"/>
    <path fill="#d0d7dc" d="M143.7 95.8h-.5c-1.1 0-1.9.9-1.9 2s.9 2 1.9 2h.5c.7 0 1.3.6 1.3 1.3v14.5c0 4-3.2 7.3-7.1 7.3-3.9 0-7.1-3.3-7.1-7.3v-14.5c0-.7.6-1.3 1.3-1.3 1.1 0 1.9-.9 1.9-2s-.9-2-1.9-2c-2.8 0-5.1 2.3-5.1 5.2v14.5c0 6.2 4.9 11.2 11 11.2s11-5 11-11.2V101c-.2-2.8-2.5-5.2-5.3-5.2z" marker-start="none" marker-end="none"/>
    <ellipse fill="#606060" cx="85.8" cy="114.7" rx="8.7" ry="8.9"/>
    <ellipse fill="#b2b9bf" cx="85.8" cy="115" rx="4.9" ry="5"/>
    <circle fill="#545465" transform="matrix(.05505 -.9985 .9985 .05505 28.478 225.448)" cx="133.3" cy="97.7" r="1.6"/>
    <circle fill="#545465" transform="matrix(.05505 -.9985 .9985 .05505 36.24 233.731)" cx="141.6" cy="97.7" r="1.6"/>
</svg> 
  </g>
</svg>
