<svg id="svg-persona-brewer" xmlns="http://www.w3.org/2000/svg" version="1.1" viewBox="0 0 223.456 305.637" stroke-width="0.5" overflow="visible">
<defs><style></style></defs>
<g transform="matrix(1,0,0,-1,-25.901441,281.67817)">
    <svg id="female-clothing-shirt-collar">
    <path fill="#DEE0E2" d="M112.2 148.8c-5.8 0-11.4-.4-16.6-1.3l16.7-42.7 16.7 42.6c-5.3.9-10.9 1.4-16.8 1.4z" marker-start="none" marker-end="none"/>
    </svg>
    <svg id="face">
    <path fill="#F1C9A5" d="M111.7 57.6c23.9 0 46.1 7.5 64.3 20.4-4.7 31.4-8 45.5-17.8 53.7-5.4 4.6-12.8 6.9-23.8 10.1-2.9.8-7.7 2.2-10.1 2.7v13.4c7.8 4.3 13.7 12.5 16.1 22.5 4.6.3 6.7 1.7 8.7 5.1 1.6 2.6 2.9 7 1.7 10.3-1.1 2.9-3.7 6-7.1 6-.9 0-1.7-.2-2.5-.5-2.3 17-14.7 30-29.5 30s-27.2-13-29.5-30c-.8.4-1.6.5-2.5.5-3.4 0-6-3.1-7.1-6-1.2-3.3.1-7.7 1.7-10.3 2-3.4 4.1-4.8 8.7-5.1 2.4-10 8.4-18.2 16.1-22.5v-13.4c-2.4-.5-7.2-1.9-10.1-2.7-11-3.2-18.4-5.5-23.8-10.1-9.8-8.2-13.1-22.3-17.8-53.7 18.2-12.9 40.4-20.4 64.3-20.4z" marker-start="none" marker-end="none"/>
    <path fill="#E4B992" d="M111.7 57.6c23.9 0 46.1 7.5 64.3 20.4-4.7 31.4-8 45.5-17.8 53.7-5.4 4.6-12.8 6.9-23.8 10.1-2.9.8-7.7 2.2-10.1 2.7v13.4c7.8 4.3 13.7 12.5 16.1 22.5 4.6.3 6.7 1.7 8.7 5.1 1.6 2.6 2.9 7 1.7 10.3-1.1 2.9-3.7 6-7.1 6-.9 0-1.7-.2-2.5-.5-2.3 17-14.7 30-29.5 30V57.6z" marker-start="none" marker-end="none"/>
    </svg>
    <svg id="female-clothing-shirt">
        <path fill="#823D0F" d="M47.4 77.9c7.9 52.4 12.6 56.4 47.1 65.5 3.2-12.1 9.1-33.6 17.2-38.6 8.1 4.9 14 26.5 17.2 38.6 34.9-9.3 40-13.4 47.1-65.5-18.2-12.8-40.4-20.4-64.3-20.4-23.9.1-46.1 7.6-64.3 20.4z" stroke="#823D0F" stroke-width="0.1" marker-start="none" marker-end="none"/>
        <path fill="#F3FAFF" d="m143.9 132.9-15.1 14.7-13-29.1s10.3-3.2 10.4-3.1l17.7 17.5z" marker-start="none" marker-end="none"/>
        <path fill="#F3FAFF" d="M126.2 122.6c-4.5.5-9.2.8-14.2.8-4.9 0-9.6-.3-14-.8l14.1-25.4 14.1 25.4z" marker-start="none" marker-end="none"/>
        <path fill="#F3FAFF" d="M98.2 115.4c.1-.1 10.4 3.1 10.4 3.1l-13 29.1-15.1-14.7 17.7-17.5z" marker-start="none" marker-end="none"/>
        <path fill="#F3FAFF" d="M169.6 112.4c-4.2 13.9-9.5 21.5-23.8 26l2.6-74.6c12.3 4.7 17.4 7.3 27.9 14.3-2.3 15-3.9 25.1-6.7 34.3zM47.5 77.9c10.5-7 15.6-9.6 27.9-14.3l2.6 74.6c-14.3-4.4-19.6-12-23.8-26-2.9-9-4.5-19.2-6.7-34.3z" stroke="#823D0F" stroke-width="0.1" marker-start="none" marker-end="none"/>
    </svg>
    <svg id="female-accessory-glasses">
    <svg id="female-accessory-glasses-frames">
            <path fill="#333333" d="m133.5 200 5.1 2.2.7-1.5-5.2-2.3c.3-.9.4-1.8.4-2.8 0-5.3-4.6-9.7-10.2-9.7-5.5 0-10 4.1-10.2 9.3-1.7.9-3.5.8-5.3 0-.2-5.2-4.7-9.3-10.2-9.3-5.7 0-10.2 4.3-10.2 9.7 0 1 .2 1.9.4 2.8l-5.2 2.3.7 1.5 5.1-2.2c1.7 3.2 5.2 5.3 9.2 5.3 5.3 0 9.6-3.8 10.2-8.6 1.9.9 3.7.8 5.4 0 .6 4.8 4.9 8.6 10.2 8.6 4 0 7.5-2.2 9.1-5.3zm-26.4-4.4c0 4.4-3.8 8-8.5 8s-8.5-3.6-8.5-8 3.8-8 8.5-8 8.5 3.6 8.5 8zm25.8 0c0 4.4-3.8 8-8.5 8s-8.5-3.6-8.5-8 3.8-8 8.5-8 8.5 3.6 8.5 8z" marker-start="none" marker-end="none"/>
    </svg>
    <svg id="female-accessory-glasses-lenses">
            <path fill="#E8D3BB" d="M107.1 195.6c0 4.4-3.8 8-8.5 8s-8.5-3.6-8.5-8 3.8-8 8.5-8 8.5 3.6 8.5 8zm25.8 0c0 4.4-3.8 8-8.5 8s-8.5-3.6-8.5-8 3.8-8 8.5-8 8.5 3.6 8.5 8z" marker-start="none" marker-end="none"/>
    </svg>
    </svg>
    <svg id="female-hair-head-bun">
    <path fill="#E6E7E8" d="M127.1 240.8c-6.1 6.4-19.6 4.6-19.6 4.6-26 0-28.7-27.4-28.7-27.4l-.5-7.6c0-5.3 2.9-11.8 5.7-18.3 0 0-.6 21.4 12.5 27.1 13.1 5.7 34.9 4.3 33.9 10.9 0 .4.6 6.7-3.3 10.7z" marker-start="none" marker-end="none"/>
    <path fill="#E6E7E8" d="M120 244.9c4 1.8 13.5-2.8 18.3-9.8 2.5-3.7 5.5-9.3 6.5-17.2 0 0 .1-15.7-3.9-25.4 0 0-11.4 32.4-23.9 46.3 0 .2.4 4.9 3 6.1z" marker-start="none" marker-end="none"/>
    <ellipse fill="#E6E7E8" cx="111.7" cy="240.5" rx="11.6" ry="11.4" marker-start="none" marker-end="none"/> 
    </svg>
</g>
</svg>
