<svg id="svg-persona-trader" xmlns="http://www.w3.org/2000/svg" version="1.1" viewBox="0 0 223.456 305.637" stroke-width="0.5" overflow="visible">
<defs><style></style></defs>
<g transform="matrix(1 0 0 -1 -25.901 281.678)">
    <svg id="face">
        <path fill="#f1c9a5" d="M111.7 57.6c23.9 0 46.1 7.5 64.3 20.4-4.7 31.4-8 45.5-17.8 53.7-5.4 4.6-12.8 6.9-23.8 10.1-2.9.8-7.7 2.2-10.1 2.7v13.4c7.8 4.3 13.7 12.5 16.1 22.5 4.6.3 6.7 1.7 8.7 5.1 1.6 2.6 2.9 7 1.7 10.3-1.1 2.9-3.7 6-7.1 6-.9 0-1.7-.2-2.5-.5-2.3 17-14.7 30-29.5 30s-27.2-13-29.5-30c-.8.4-1.6.5-2.5.5-3.4 0-6-3.1-7.1-6-1.2-3.3.1-7.7 1.7-10.3 2-3.4 4.1-4.8 8.7-5.1 2.4-10 8.4-18.2 16.1-22.5v-13.4c-2.4-.5-7.2-1.9-10.1-2.7-11-3.2-18.4-5.5-23.8-10.1-9.8-8.2-13.1-22.3-17.8-53.7 18.2-12.9 40.4-20.4 64.3-20.4z" marker-start="none" marker-end="none"/>
        <path fill="#e4b992" d="M111.7 57.6c23.9 0 46.1 7.5 64.3 20.4-4.7 31.4-8 45.5-17.8 53.7-5.4 4.6-12.8 6.9-23.8 10.1-2.9.8-7.7 2.2-10.1 2.7v13.4c7.8 4.3 13.7 12.5 16.1 22.5 4.6.3 6.7 1.7 8.7 5.1 1.6 2.6 2.9 7 1.7 10.3-1.1 2.9-3.7 6-7.1 6-.9 0-1.7-.2-2.5-.5-2.3 17-14.7 30-29.5 30V57.6z" marker-start="none" marker-end="none"/>
    </svg> 
    <svg id="male-hair">
        <path fill="#333333" d="m81.6 220.4 8-2.9c-3.3-4.6-5.6-10.3-6.5-16.6-.8.3-1.6.5-2.4.5-.9 0-1.7-.2-2.5-.6-.4 4.7.9 15.9 3.4 19.6z" marker-start="none" marker-end="none"/>
        <path fill="#333333" d="m141.8 220.4-8-2.9c3.3-4.6 5.6-10.3 6.5-16.6.8.3 1.6.5 2.4.5.9 0 1.7-.2 2.5-.6.4 4.7-.8 15.9-3.4 19.6z" marker-start="none" marker-end="none"/>
    </svg>
    <svg id="male-accessory-glasses">
       <svg id="male-accessory-glasses-frames">
         <path fill="#1A1A1A" d="M114 198c0-1.3.2-2.7.7-3.9.3-.8 1.1-1.6 1.9-1.9 5.3-2.3 11.8-2.3 17.1 0 .8.3 1.5 1.1 1.9 1.9.6 1.6.8 3.4.6 5.1l.2.8c.2.6 2.4.7 4.3.8l1 2.8c-2.7.2-7.5.4-9 .6-5.1 1.9-11.2 1.8-16.2-.4-.6-.3-1.2-.8-1.6-1.4-1-.3-2.3-.5-3.3-.5-.9 0-2.3.2-3.3.5-.4.6-1 1.1-1.6 1.4-5 2.1-11.1 2.2-16.2.4-1.4-.2-6.2-.4-9-.6l1-2.8c1.9-.1 4.1-.2 4.3-.8l.2-.8c-.2-1.7 0-3.5.6-5.1.3-.8 1.1-1.6 1.9-1.9 5.3-2.3 11.8-2.3 17.1 0 .8.3 1.5 1.1 1.9 1.9.5 1.2.7 2.5.7 3.9 1 2.5 4.3 2.4 4.8 0z" marker-start="none" marker-end="none"/>
       </svg>
    </svg>
	<svg id="male-hair-hat">
		<path fill="#242424" d="m79.9 223.8 9.1 22.8c2.8 7.3 11.1 9.2 16.8 7.4 2.7-.8 3.6-.8 5-.8s2.3.1 5 .8c5.8 1.8 14.1-.1 16.8-7.4l9.1-22.8c-20.7-7.1-41.3-7.1-61.8 0z" marker-start="none" marker-end="none"/>
        <path fill="#F5F5F5" d="M110.2 237c-3.6 0-15.5.1-24.2 1.9-.9-1.9-2.2-5.6-2.9-7.4 8.7-2.1 23.4-2.2 27.2-2.2 3.8 0 19.6.5 28.3 2.6-.8 2-1.8 4.4-2.8 6.9-8.8-1.9-21.9-1.8-25.6-1.8z" marker-start="none" marker-end="none"/>
        <path fill="#27272C" d="M110.8 221.4c-8.5 0-17 .6-24.6 1.7-12.9 1.9-22.7 6-22.7 3 0-4.8 12.9-16.5 47.3-16.5s47.3 11.7 47.3 16.5c0 3-9.8-1.1-22.7-3-7.5-1.1-16-1.7-24.6-1.7z" marker-start="none" marker-end="none"/>
	</svg>
    <svg id="male-clothing">
        <svg id="male-clothing-shirt">
        <path fill="#F5F5F5" d="m132.9 142.2-21.2-20.7-21.2 20.7c.8-12 .9-33.8 21.2-69.5 20.3 35.7 20.4 57.5 21.2 69.5z" marker-start="none" marker-end="none"/>
        <path fill="#F5F5F5" d="M92.4 125.7c-1.1 5-2 10.2-2.7 15.7h0l7.3 2.2c2.5-9.1 7.6-14.4 14.6-22-5.6-4.5-7.5-6.4-10.9-8.4-2.5 2.3-5.7 7.2-8.3 12.5z" stroke="#150200" stroke-width="0.15" marker-start="none" marker-end="none"/>
        <path fill="#F5F5F5" d="M111.7 121.7c7.1 7.6 12.2 12.9 14.6 22l7.3-2.2h0c-.7-5.5-1.6-10.7-2.7-15.7-2.5-5.3-5.8-10.2-8.4-12.5-3.3 2-5.2 3.9-10.8 8.4z" stroke="#150200" stroke-width="0.15" marker-start="none" marker-end="none"/>
        </svg>
        <svg id="male-clothing-shirt-tie">
        <path fill="#A32C39" d="m108.9 111.3-3.2 3.2 6.1 6.1 6.1-6.1-3.2-3.2h-5.8z" marker-start="none" marker-end="none"/>
        <path fill="#A32C39" d="m106.8 92.5 2.1 17.7h5.6l2.1-17.7c-1.5-2.3-3.2-4.6-4.9-6.9-1.7 2.3-3.4 4.6-4.9 6.9z" marker-start="none" marker-end="none"/>
        </svg>
        <svg id="male-clothing-court">
            <path fill="#1A1A1A" d="M111.7 85.6c-16.8 31.9-14.2 50.8-15.6 58.2-10.1-3-17.7-5-23.6-7.7-13.6-6.3-18.4-16.6-24.9-58.3 7.7-5.4 16-9.8 24.9-13.2 12.2-4.6 25.4-7.1 39.2-7.1s27 2.5 39.2 7.1c8.9 3.3 17.3 7.8 24.9 13.2-6.5 41.7-11.3 52-24.9 58.3-5.9 2.7-13.4 4.7-23.6 7.7-1.3-7.3 1.2-26.3-15.6-58.2z" marker-start="none" marker-end="none"/>
            <path fill="#ffffff" d="M149.9 64.3v72.2c.3-.1.7-.3 1-.4V64.7c-.3-.2-.6-.3-1-.4z" marker-start="none" marker-end="none"/>
            <path fill="#ffffff" d="M72.5 64.7v71.5c.3.2.7.3 1 .4V64.4c-.3 0-.6.1-1 .3z" marker-start="none" marker-end="none"/>
            <path fill="#ffffff" d="M80.7 62v77.3c.3.1.7.2 1 .3V61.7c-.3.1-.6.2-1 .3z" marker-start="none" marker-end="none"/>
            <path fill="#ffffff" d="M141.7 61.7v77.9c.3-.1.7-.2 1-.3V62c-.3-.1-.7-.2-1-.3z" marker-start="none" marker-end="none"/>
            <path fill="#ffffff" d="M89.5 59.8v82.1c.3.1.7.2 1 .3V59.7c-.4 0-.7 0-1 .1z" marker-start="none" marker-end="none"/>
            <path fill="#ffffff" d="M133 59.6v82.5c.3-.1.7-.2 1-.3v-82c-.3-.1-.7-.1-1-.2z" marker-start="none" marker-end="none"/>
            <path fill="#ffffff" d="M98.2 58.4v65.4c.3-1.6.6-3.3 1-5.1V58.3c-.4 0-.7.1-1 .1z" marker-start="none" marker-end="none"/>
            <path fill="#ffffff" d="M124.3 58.3v60.4c.4 1.8.7 3.5 1 5.1V58.4c-.3 0-.7-.1-1-.1z" marker-start="none" marker-end="none"/>
            <path fill="#ffffff" d="M106.9 57.7v38c.3-.7.7-1.5 1-2.2V57.7h-1z" marker-start="none" marker-end="none"/>
            <path fill="#ffffff" d="M115.6 57.7v35.8c.3.7.7 1.5 1 2.2v-38h-1z" marker-start="none" marker-end="none"/>
            <path fill="#ffffff" d="m66.2 67.2 6.3 22.3v-3.7l-5.4-19c-.2.2-.6.3-.9.4z" marker-start="none" marker-end="none"/>
            <path fill="#ffffff" d="m58.8 70.9 13.8 48.7V116L59.7 70.4c-.3.2-.6.4-.9.5z" marker-start="none" marker-end="none"/>
            <path fill="#ffffff" d="M51.5 75.2 68 133.6c.4.3.8.5 1.3.8L52.4 74.7c-.3.1-.6.3-.9.5z" marker-start="none" marker-end="none"/>
            <path fill="#ffffff" d="m156.3 66.8-5.4 19v3.7l6.3-22.3c-.3-.1-.6-.2-.9-.4z" marker-start="none" marker-end="none"/>
            <path fill="#ffffff" d="M163.8 70.4 150.9 116v3.7L164.7 71l-.9-.6z" marker-start="none" marker-end="none"/>
            <path fill="#ffffff" d="m171.1 74.7-16.9 59.8c.4-.3.9-.5 1.3-.8L172 75.2c-.3-.2-.6-.4-.9-.5z" marker-start="none" marker-end="none"/>
            <svg id="male-clothing-pocket">
            <path fill="#ffffff" d="m124 89.3 9.8 13.2 8.9-7.3-18.7-5.9z" marker-start="none" marker-end="none"/>
            <path fill="#242424" d="M121.2 90.3v-8.1l24.9 8v8.1l-24.9-8z" marker-start="none" marker-end="none"/>
            </svg>
        </svg>
    </svg>
</g>
</svg>
