<svg  id="svg-persona-trader" xmlns="http://www.w3.org/2000/svg" version="1.1" viewBox="0 0 223.5 305.6" stroke-width="0.5" overflow="visible">
  <defs>
  <linearGradient id="LinearGradient" gradientUnits="userSpaceOnUse" x1="26.197" y1="174.994" x2="36.419" y2="165.421" gradientTransform="translate(63.204 27.195)"><stop offset="0" style="stop-color:#fff"/><stop offset="1" style="stop-color:#7d3825"/></linearGradient>
  <linearGradient id="LinearGradient_1" gradientUnits="userSpaceOnUse" x1="27.077" y1="175.682" x2="36.836" y2="164.253" gradientTransform="translate(88.469 29.05)"><stop offset="0" style="stop-color:#fff"/><stop offset="1" style="stop-color:#7d3825"/></linearGradient>
  </defs>
  <g transform="matrix(1 0 0 -1 -25.901 281.678)">
    <svg id="face">
        <path fill="#f1c9a5" d="M111.7 57.6c23.9 0 46.1 7.5 64.3 20.4-4.7 31.4-8 45.5-17.8 53.7-5.4 4.6-12.8 6.9-23.8 10.1-2.9.8-7.7 2.2-10.1 2.7v13.4c7.8 4.3 13.7 12.5 16.1 22.5 4.6.3 6.7 1.7 8.7 5.1 1.6 2.6 2.9 7 1.7 10.3-1.1 2.9-3.7 6-7.1 6-.9 0-1.7-.2-2.5-.5-2.3 17-14.7 30-29.5 30s-27.2-13-29.5-30c-.8.4-1.6.5-2.5.5-3.4 0-6-3.1-7.1-6-1.2-3.3.1-7.7 1.7-10.3 2-3.4 4.1-4.8 8.7-5.1 2.4-10 8.4-18.2 16.1-22.5v-13.4c-2.4-.5-7.2-1.9-10.1-2.7-11-3.2-18.4-5.5-23.8-10.1-9.8-8.2-13.1-22.3-17.8-53.7 18.2-12.9 40.4-20.4 64.3-20.4z" marker-start="none" marker-end="none"/>
        <path fill="#e4b992" d="M111.7 57.6c23.9 0 46.1 7.5 64.3 20.4-4.7 31.4-8 45.5-17.8 53.7-5.4 4.6-12.8 6.9-23.8 10.1-2.9.8-7.7 2.2-10.1 2.7v13.4c7.8 4.3 13.7 12.5 16.1 22.5 4.6.3 6.7 1.7 8.7 5.1 1.6 2.6 2.9 7 1.7 10.3-1.1 2.9-3.7 6-7.1 6-.9 0-1.7-.2-2.5-.5-2.3 17-14.7 30-29.5 30V57.6z" marker-start="none" marker-end="none"/>
    </svg> 
    <svg id="male-hair">
        <path fill="#622a2a" d="M96.3 223.5c-11.6-5.1-14.2-22.6-14.2-22.6s-5.1 13.1-3.4 25c1.2 8 7.8 14.5 15.9 14.6h4.2c0 .1 3.7-14.3-2.5-17z" marker-start="none" marker-end="none"/>
        <path fill="#622a2a" d="M90.5 220.7c18.3-11.3 44.2-5 44.2-5l6.4-14.5c7.2 12 3.2 41.5-17 51.8-.8-5.1-7.9-10.4-32.6-12.8" marker-start="none" marker-end="none"/>
    </svg>   
    <svg id="male-accessory-glasses">
        <svg id="male-accessory-glasses-frames">
        <path fill="#4f0000" d="m87 195.8-.7.6-1.6.6-2.5 3.8c8.1 1.6 13.8 2.8 18.8 1.7 3.6-.8 7.7-3.1 10.8-3.1 3 0 7.1 2.3 10.8 3.1 5 1.1 10.7 0 18.7-1.7l-2.4-3.8-1.6-.6-.7-.6c-.1-8.8-5.6-13.4-11.5-13.6-5.8-.2-11.6 3.9-12 12.5 0 .2-.2.3-.4.4-.5.2-1.1.2-1.6 0-.2-.1-.4-.2-.4-.4-.4-8.6-6.3-12.7-12-12.5-6.1.2-11.6 4.8-11.7 13.6zm21.7-3c.5 1.9-.5 4.1-2.4 5.4-2 1.5-4.8 2.5-7.4 2.7-2.4.2-5 .2-7.2-1.2-1.8-1.1-2.9-3-2.7-5 .4-5.4 4.8-10 9.5-10.3 4.3-.2 9.2 4.1 10.2 8.4zm16.3-8.3c4.7.3 9.1 4.9 9.5 10.3.1 1.9-.9 3.8-2.7 5-2.2 1.4-4.8 1.5-7.2 1.2-2.6-.2-5.4-1.3-7.4-2.7-1.9-1.4-2.9-3.5-2.4-5.4 1-4.4 5.8-8.7 10.2-8.4z" marker-start="none" marker-end="none"/>
        </svg>
        <svg id="male-accessory-glasses-lenses">  
            <path style="fill:url(#LinearGradient)" d="M108.7 192.8c.5 1.9-.5 4.1-2.4 5.4-2 1.5-4.8 2.5-7.4 2.7-2.4.2-5 .2-7.2-1.2-1.8-1.1-2.9-3-2.7-5 .4-5.4 4.8-10 9.5-10.3 4.3-.2 9.2 4.1 10.2 8.4z" marker-start="none" marker-end="none"/>
            <ellipse fill="#ffffff" cx="92.9" cy="197.4" rx="1.5" ry="1.5"/>
            <ellipse fill="#ffffff" cx="96.3" cy="195.9" rx=".8" ry=".8"/>
            <path style="fill:url(#LinearGradient_1)" d="M114.7 192.8c-.5 1.9.5 4.1 2.4 5.4 2 1.5 4.8 2.5 7.4 2.7 2.4.2 5 .2 7.2-1.2 1.8-1.1 2.9-3 2.7-5-.4-5.4-4.8-10-9.5-10.3-4.3-.2-9.1 4.1-10.2 8.4z" marker-start="none" marker-end="none"/>
            <ellipse fill="#ffffff" cx="120.3" cy="197.4" rx="1.5" ry="1.5"/>
            <ellipse fill="#ffffff" cx="123.7" cy="195.9" rx=".8" ry=".8"/>
        </svg>
    </svg>
    <svg id="male-clothing">
        <svg id="male-clothing-shirt">
        <path fill="#cecbbf" d="m132.9 142.2-21.2-20.7-21.2 20.7c.8-12 .9-33.8 21.2-69.5 20.3 35.7 20.4 57.5 21.2 69.5z" marker-start="none" marker-end="none"/>
        <path fill="#CECBBF" d="M92.4 125.7c-1.1 5-2 10.2-2.7 15.7h0l7.3 2.2c2.5-9.1 7.6-14.4 14.6-22-5.6-4.5-7.5-6.4-10.9-8.4-2.5 2.3-5.7 7.2-8.3 12.5z" stroke="#638788" stroke-width="0.25" marker-start="none" marker-end="none"/>
        <path fill="#CECBBF" d="M111.7 121.7c7.1 7.6 12.2 12.9 14.6 22l7.3-2.2h0c-.7-5.5-1.6-10.7-2.7-15.7-2.5-5.3-5.8-10.2-8.4-12.5-3.3 2-5.2 3.9-10.8 8.4z" stroke="#638788" stroke-width="0.25" marker-start="none" marker-end="none"/>
        </svg>
        <svg id="male-clothing-shirt-tie">
        <path fill="#638788" d="m108.9 111.3-3.2 3.2 6.1 6.1 6.1-6.1-3.2-3.2h-5.8z" marker-start="none" marker-end="none"/>
        <path fill="#638788" d="m106.8 92.5 2.1 17.7h5.6l2.1-17.7c-1.5-2.3-3.2-4.6-4.9-6.9-1.7 2.3-3.4 4.6-4.9 6.9z" marker-start="none" marker-end="none"/>
        </svg>
        <svg id="male-clothing-court">
            <path fill="#402230" d="M111.7 85.6c-16.8 31.9-14.2 50.8-15.6 58.2-10.1-3-17.7-5-23.6-7.7-13.6-6.3-18.4-16.6-24.9-58.3 7.7-5.4 16-9.8 24.9-13.2 12.2-4.6 25.4-7.1 39.2-7.1s27 2.5 39.2 7.1c8.9 3.3 17.3 7.8 24.9 13.2-6.5 41.7-11.3 52-24.9 58.3-5.9 2.7-13.4 4.7-23.6 7.7-1.3-7.3 1.2-26.3-15.6-58.2z" marker-start="none" marker-end="none"/>
            <path fill="#ffffff" d="M149.9 64.3v72.2c.3-.1.7-.3 1-.4V64.7c-.3-.2-.6-.3-1-.4z" marker-start="none" marker-end="none"/>
            <path fill="#ffffff" d="M72.5 64.7v71.5c.3.2.7.3 1 .4V64.4c-.3 0-.6.1-1 .3z" marker-start="none" marker-end="none"/>
            <path fill="#ffffff" d="M80.7 62v77.3c.3.1.7.2 1 .3V61.7c-.3.1-.6.2-1 .3z" marker-start="none" marker-end="none"/>
            <path fill="#ffffff" d="M141.7 61.7v77.9c.3-.1.7-.2 1-.3V62c-.3-.1-.7-.2-1-.3z" marker-start="none" marker-end="none"/>
            <path fill="#ffffff" d="M89.5 59.8v82.1c.3.1.7.2 1 .3V59.7c-.4 0-.7 0-1 .1z" marker-start="none" marker-end="none"/>
            <path fill="#ffffff" d="M133 59.6v82.5c.3-.1.7-.2 1-.3v-82c-.3-.1-.7-.1-1-.2z" marker-start="none" marker-end="none"/>
            <path fill="#ffffff" d="M98.2 58.4v65.4c.3-1.6.6-3.3 1-5.1V58.3c-.4 0-.7.1-1 .1z" marker-start="none" marker-end="none"/>
            <path fill="#ffffff" d="M124.3 58.3v60.4c.4 1.8.7 3.5 1 5.1V58.4c-.3 0-.7-.1-1-.1z" marker-start="none" marker-end="none"/>
            <path fill="#ffffff" d="M106.9 57.7v38c.3-.7.7-1.5 1-2.2V57.7h-1z" marker-start="none" marker-end="none"/>
            <path fill="#ffffff" d="M115.6 57.7v35.8c.3.7.7 1.5 1 2.2v-38h-1z" marker-start="none" marker-end="none"/>
            <path fill="#ffffff" d="m66.2 67.2 6.3 22.3v-3.7l-5.4-19c-.2.2-.6.3-.9.4z" marker-start="none" marker-end="none"/>
            <path fill="#ffffff" d="m58.8 70.9 13.8 48.7V116L59.7 70.4c-.3.2-.6.4-.9.5z" marker-start="none" marker-end="none"/>
            <path fill="#ffffff" d="M51.5 75.2 68 133.6c.4.3.8.5 1.3.8L52.4 74.7c-.3.1-.6.3-.9.5z" marker-start="none" marker-end="none"/>
            <path fill="#ffffff" d="m156.3 66.8-5.4 19v3.7l6.3-22.3c-.3-.1-.6-.2-.9-.4z" marker-start="none" marker-end="none"/>
            <path fill="#ffffff" d="M163.8 70.4 150.9 116v3.7L164.7 71l-.9-.6z" marker-start="none" marker-end="none"/>
            <path fill="#ffffff" d="m171.1 74.7-16.9 59.8c.4-.3.9-.5 1.3-.8L172 75.2c-.3-.2-.6-.4-.9-.5z" marker-start="none" marker-end="none"/>
            <svg id="male-clothing-pocket">
            <path fill="#ffffff" d="m124 89.3 9.8 13.2 8.9-7.3-18.7-5.9z" marker-start="none" marker-end="none"/>
            <path fill="#402230" d="M121.2 90.3v-8.1l24.9 8v8.1l-24.9-8z" marker-start="none" marker-end="none"/>
            </svg>
        </svg>
    </svg>
  </g>
</svg>